<svg version="1.2" xmlns="http://www.w3.org/2000/svg" viewBox="0 0 1000 1000" width="1000" height="1000">
	<title>25001216_7040861-ai</title>
	<style>
		tspan { white-space:pre } 
		.s0 { fill: #ffffff } 
		.s1 { fill: #ded7ff } 
		.s2 { fill: none;stroke: #0f1b63;stroke-width: 2 } 
		.s3 { fill: #b19cfe } 
		.s4 { fill: #c1c1c1 } 
		.s5 { fill: #ffc655 } 
		.s6 { fill: #c60c88 } 
		.s7 { fill: #d42190 } 
		.s8 { opacity: .5;fill: #ffffff } 
		.s9 { fill: #542fd0 } 
		.s10 { fill: #0f1b63 } 
		.s11 { fill: none;stroke: #b19cfe } 
		.t12 { font-size: 25px;text-transform: uppercase;fill: #ffffff;font-weight: 700;font-family: "Montserrat-Bold", "Montserrat" } 
		.t13 { font-size: 18px;text-transform: uppercase;fill: #ffffff;font-weight: 700;font-family: "Montserrat-Bold", "Montserrat" } 
		.t14 { font-size: 19px;text-transform: uppercase;fill: #ffffff;font-weight: 700;font-family: "Montserrat-Bold", "Montserrat" } 
		.t15 { font-size: 24px;text-transform: uppercase;fill: #ffffff;font-weight: 700;font-family: "Montserrat-Bold", "Montserrat" } 
	</style>
	<g id="BACKGROUND">
		<path id="BACKGROUND 1 " class="s0" d="m997.7 2.3h-995.4v995.4h995.4z"/>
	</g>
	<g id="OBJECTS">
		<g id="&lt;Group&gt;" style="opacity: .5">
			<path id="&lt;Path&gt;" class="s1" d="m908 747c0 91.1-73.9 165-165 165-91.1 0-165-73.9-165-165 0-91.1 73.9-165 165-165 91.1 0 165 73.9 165 165z"/>
			<path id="&lt;Path&gt;" class="s1" d="m660 419c0 155.2-125.8 281-281 281-155.2 0-281-125.8-281-281 0-155.2 125.8-281 281-281 155.2 0 281 125.8 281 281z"/>
		</g>
		<path id="&lt;Compound Path&gt;" fill-rule="evenodd" class="s2" d="m900.9 391.2l7.7 8.4c2.4 2.6 2.2 6.7-0.4 9.1l-8.4 7.7q-0.4 0.4-0.9 0.6c3.1 5.5 5.3 11.4 6.4 17.5q0.5-0.1 1.1-0.1l11.4 0.4c3.5 0.2 6.2 3.2 6.1 6.7l-0.4 11.4c-0.1 1.7-0.9 3.3-2.1 4.4-1.2 1.2-2.8 1.8-4.6 1.7l-11.4-0.4q-0.5 0-1.1-0.2c-1.6 6.1-4.3 12-8 17.3q0.5 0.3 0.8 0.8l7.7 8.3c2.4 2.7 2.2 6.7-0.4 9.1l-8.4 7.7c-2.6 2.4-6.6 2.2-9-0.4l-7.7-8.4q-0.4-0.4-0.7-0.9c-5.5 3.2-11.4 5.3-17.4 6.4q0.1 0.5 0.1 1.1l-0.5 11.4c0 1.8-0.8 3.3-2.1 4.5-1.2 1.1-2.8 1.7-4.5 1.6l-11.4-0.4c-1.7-0.1-3.3-0.8-4.5-2.1-1.1-1.2-1.7-2.9-1.7-4.6l0.5-11.3q0-0.6 0.1-1.2c-6.1-1.6-11.9-4.2-17.2-8q-0.4 0.5-0.8 0.9l-8.4 7.6c-2.6 2.4-6.7 2.3-9-0.4l-7.7-8.3c-2.4-2.7-2.2-6.7 0.4-9.1l8.4-7.7q0.4-0.4 0.8-0.7c-3.1-5.4-5.2-11.3-6.3-17.4q-0.6 0.1-1.1 0.1l-11.4-0.5c-3.5-0.1-6.3-3.1-6.2-6.6l0.5-11.4c0-1.7 0.8-3.3 2-4.4q0-0.1 0.1-0.1c1.2-1.1 2.8-1.7 4.5-1.6l11.4 0.4q0.6 0 1.1 0.2c1.6-6.1 4.3-12 8-17.3q-0.4-0.4-0.8-0.8l-7.7-8.4c-2.4-2.6-2.2-6.6 0.4-9l8.4-7.7c2.6-2.4 6.7-2.2 9.1 0.4l7.7 8.4q0.3 0.4 0.6 0.9c5.5-3.2 11.4-5.3 17.4-6.4q0-0.5 0-1.1l0.4-11.4c0.2-3.5 3.1-6.3 6.7-6.1l11.3 0.4c3.6 0.1 6.3 3.1 6.2 6.7l-0.4 11.3q-0.1 0.6-0.2 1.2c6.1 1.6 12 4.2 17.3 7.9q0.3-0.4 0.7-0.8l8.4-7.7c2.6-2.3 6.7-2.2 9.1 0.4zm-27.3 32.8c-11.3-12.3-30.4-13.1-42.6-1.9-12.3 11.2-13.1 30.3-1.9 42.6 11.2 12.3 30.3 13.1 42.6 1.9 12.2-11.3 13.1-30.4 1.9-42.6z"/>
		<g id="&lt;Group&gt;">
			<g id="&lt;Group&gt;">
				<g id="&lt;Group&gt;">
					<g id="&lt;Group&gt;">
						<path id="&lt;Compound Path&gt;" class="s3" d="m228.8 831.5h-4.4c-0.9 0-1.5-0.7-1.5-1.5 0-0.8 0.6-1.4 1.5-1.4h4.4c0.8 0 1.5 0.6 1.5 1.4 0 0.8-0.7 1.5-1.5 1.5zm-14.3 0h-9.8c-0.9 0-1.5-0.7-1.5-1.5 0-0.8 0.6-1.4 1.5-1.4h9.8c0.8 0 1.5 0.6 1.5 1.4 0 0.8-0.7 1.5-1.5 1.5zm-19.7 0h-9.8c-0.9 0-1.5-0.7-1.5-1.5 0-0.8 0.6-1.4 1.5-1.4h9.8c0.8 0 1.5 0.6 1.5 1.4 0 0.8-0.7 1.5-1.5 1.5zm-19.7 0h-9.8c-0.9 0-1.5-0.7-1.5-1.5 0-0.8 0.6-1.4 1.5-1.4h9.8c0.8 0 1.5 0.6 1.5 1.4 0 0.8-0.7 1.5-1.5 1.5zm-19.7 0h-9.8c-0.9 0-1.5-0.7-1.5-1.5 0-0.8 0.6-1.4 1.5-1.4h9.8c0.8 0 1.5 0.6 1.5 1.4 0 0.8-0.7 1.5-1.5 1.5zm-19.7 0h-9.8c-0.9 0-1.5-0.7-1.5-1.5 0-0.8 0.6-1.4 1.5-1.4h9.8c0.8 0 1.5 0.6 1.5 1.4 0 0.8-0.7 1.5-1.5 1.5zm-19.7 0q0 0 0 0c-3.5-0.1-6.9-0.7-10.1-1.7-0.8-0.2-1.2-1-1-1.8 0.3-0.8 1.1-1.2 1.9-1 3 0.9 6.1 1.5 9.2 1.5 0.9 0.1 1.5 0.7 1.5 1.6 0 0.8-0.7 1.4-1.5 1.4zm-18.6-5.8q-0.4 0-0.8-0.2c-2.8-1.9-5.4-4.1-7.7-6.7-0.5-0.6-0.5-1.5 0.1-2.1 0.6-0.5 1.6-0.5 2.1 0.2 2.1 2.3 4.5 4.4 7.1 6.1 0.7 0.5 0.9 1.4 0.5 2.1-0.3 0.4-0.8 0.6-1.3 0.6zm-12.8-14.6c-0.6 0-1.1-0.3-1.4-0.8-1.5-3.1-2.5-6.4-3.1-9.7-0.2-0.8 0.4-1.6 1.2-1.7 0.8-0.2 1.5 0.4 1.7 1.2 0.5 3.1 1.5 6.1 2.9 8.9 0.3 0.8 0 1.6-0.7 2q-0.3 0.1-0.6 0.1zm-3.6-19.1c-0.8 0-1.5-0.7-1.5-1.5v-9.8c0-0.9 0.7-1.5 1.5-1.5 0.8 0 1.5 0.6 1.5 1.5v9.8c0 0.8-0.7 1.5-1.5 1.5zm0-19.7c-0.8 0-1.5-0.7-1.5-1.5v-9.8c0-0.9 0.7-1.5 1.5-1.5 0.8 0 1.5 0.6 1.5 1.5v9.8c0 0.8-0.7 1.5-1.5 1.5zm0-19.7c-0.8 0-1.5-0.7-1.5-1.5v-9.8c0-0.9 0.7-1.5 1.5-1.5 0.8 0 1.5 0.6 1.5 1.5v9.8c0 0.8-0.7 1.5-1.5 1.5zm0-19.7c-0.8 0-1.5-0.7-1.5-1.5v-9.8c0-0.9 0.7-1.5 1.5-1.5 0.8 0 1.5 0.6 1.5 1.5v9.8c0 0.8-0.7 1.5-1.5 1.5zm0-19.7c-0.8 0-1.5-0.7-1.5-1.5v-9.8c0-0.9 0.7-1.5 1.5-1.5 0.8 0 1.5 0.6 1.5 1.5v9.8c0 0.8-0.7 1.5-1.5 1.5zm0-19.7c-0.8 0-1.5-0.7-1.5-1.5v-9.8c0-0.9 0.7-1.5 1.5-1.5 0.8 0 1.5 0.6 1.5 1.5v9.8c0 0.8-0.7 1.5-1.5 1.5zm0-19.7c-0.8 0-1.5-0.7-1.5-1.5v-9.8c0-0.9 0.7-1.5 1.5-1.5 0.8 0 1.5 0.6 1.5 1.5v9.8c0 0.8-0.7 1.5-1.5 1.5zm0-19.7c-0.8 0-1.5-0.7-1.5-1.5v-9.8c0-0.9 0.7-1.5 1.5-1.5 0.8 0 1.5 0.6 1.5 1.5v9.8c0 0.8-0.7 1.5-1.5 1.5zm0-19.7c-0.8 0-1.5-0.7-1.5-1.5v-9.8c0-0.9 0.7-1.5 1.5-1.5 0.8 0 1.5 0.6 1.5 1.5v9.8c0 0.8-0.7 1.5-1.5 1.5zm0-19.7c-0.8 0-1.5-0.7-1.5-1.5v-9.8c0-0.9 0.7-1.5 1.5-1.5 0.8 0 1.5 0.6 1.5 1.5v9.8c0 0.8-0.7 1.5-1.5 1.5zm0-19.7c-0.8 0-1.5-0.7-1.5-1.5v-9.8c0-0.9 0.7-1.5 1.5-1.5 0.8 0 1.5 0.6 1.5 1.5v9.8c0 0.8-0.7 1.5-1.5 1.5zm0-19.7c-0.8 0-1.5-0.7-1.5-1.5v-9.8c0-0.9 0.7-1.5 1.5-1.5 0.8 0 1.5 0.6 1.5 1.5v9.8c0 0.8-0.7 1.5-1.5 1.5zm0-19.7c-0.8 0-1.5-0.7-1.5-1.5v-1c0-3.1 0.4-6.1 1.1-9.1 0.2-0.8 1-1.3 1.8-1.1 0.8 0.2 1.3 1 1.1 1.8-0.7 2.7-1 5.6-1 8.4v1c0 0.8-0.7 1.5-1.5 1.5zm4.7-18.9q-0.4 0-0.7-0.2c-0.7-0.4-1-1.3-0.6-2 1.7-3 3.8-5.7 6.3-8.1 0.5-0.6 1.5-0.6 2 0 0.6 0.6 0.6 1.5 0 2.1-2.2 2.2-4.1 4.7-5.7 7.5-0.3 0.5-0.8 0.7-1.3 0.7zm13.8-13.7c-0.5 0-1-0.2-1.2-0.7-0.4-0.7-0.2-1.6 0.5-2 3-1.7 6.2-2.9 9.6-3.7 0.8-0.2 1.5 0.3 1.7 1.1 0.2 0.8-0.3 1.6-1.1 1.8-3 0.7-6 1.8-8.7 3.4q-0.4 0.1-0.8 0.1zm245.5-4.5h-9.8c-0.8 0-1.5-0.6-1.5-1.4 0-0.9 0.7-1.5 1.5-1.5h9.8c0.8 0 1.5 0.6 1.5 1.5 0 0.8-0.7 1.4-1.5 1.4zm-19.7 0h-9.8c-0.8 0-1.5-0.6-1.5-1.4 0-0.9 0.7-1.5 1.5-1.5h9.8c0.8 0 1.5 0.6 1.5 1.5 0 0.8-0.7 1.4-1.5 1.4zm-19.7 0h-9.8c-0.8 0-1.5-0.6-1.5-1.4 0-0.9 0.7-1.5 1.5-1.5h9.8c0.8 0 1.5 0.6 1.5 1.5 0 0.8-0.7 1.4-1.5 1.4zm-19.7 0h-9.8c-0.8 0-1.5-0.6-1.5-1.4 0-0.9 0.7-1.5 1.5-1.5h9.8c0.8 0 1.5 0.6 1.5 1.5 0 0.8-0.7 1.4-1.5 1.4zm-19.7 0h-9.8c-0.8 0-1.5-0.6-1.5-1.4 0-0.9 0.7-1.5 1.5-1.5h9.8c0.8 0 1.5 0.6 1.5 1.5 0 0.8-0.7 1.4-1.5 1.4zm-19.7 0h-9.8c-0.8 0-1.5-0.6-1.5-1.4 0-0.9 0.7-1.5 1.5-1.5h9.8c0.8 0 1.5 0.6 1.5 1.5 0 0.8-0.7 1.4-1.5 1.4zm-19.7 0h-9.8c-0.8 0-1.5-0.6-1.5-1.4 0-0.9 0.7-1.5 1.5-1.5h9.8c0.8 0 1.5 0.6 1.5 1.5 0 0.8-0.7 1.4-1.5 1.4zm-19.7 0h-9.8c-0.8 0-1.5-0.6-1.5-1.4 0-0.9 0.7-1.5 1.5-1.5h9.8c0.8 0 1.5 0.6 1.5 1.5 0 0.8-0.7 1.4-1.5 1.4zm-19.7 0h-9.8c-0.8 0-1.5-0.6-1.5-1.4 0-0.9 0.7-1.5 1.5-1.5h9.8c0.8 0 1.5 0.6 1.5 1.5 0 0.8-0.7 1.4-1.5 1.4zm-19.7 0h-9.8c-0.8 0-1.5-0.6-1.5-1.4 0-0.9 0.7-1.5 1.5-1.5h9.8c0.8 0 1.5 0.6 1.5 1.5 0 0.8-0.7 1.4-1.5 1.4zm-19.7 0h-9.8c-0.8 0-1.5-0.6-1.5-1.4 0-0.9 0.7-1.5 1.5-1.5h9.8c0.8 0 1.5 0.6 1.5 1.5 0 0.8-0.7 1.4-1.5 1.4zm-19.7 0h-9.8c-0.8 0-1.5-0.6-1.5-1.4 0-0.9 0.7-1.5 1.5-1.5h9.8c0.8 0 1.5 0.6 1.5 1.5 0 0.8-0.7 1.4-1.5 1.4z"/>
					</g>
				</g>
				<g id="&lt;Group&gt;">
					<g id="&lt;Group&gt;">
						<path id="&lt;Path&gt;" class="s3" d="m87.4 674c0 3.5-2.9 6.4-6.4 6.4-3.6 0-6.5-2.9-6.5-6.4 0-3.6 2.9-6.5 6.5-6.5 3.5 0 6.4 2.9 6.4 6.5z"/>
					</g>
					<g id="&lt;Group&gt;">
						<path id="&lt;Compound Path&gt;" fill-rule="evenodd" class="s3" d="m81 686c-6.7 0-12.1-5.4-12.1-12 0-6.7 5.4-12.1 12.1-12.1 6.6 0 12 5.4 12 12.1 0 6.6-5.4 12-12 12zm0-22.6c-5.9 0-10.6 4.7-10.6 10.6 0 5.8 4.7 10.6 10.6 10.6 5.8 0 10.6-4.8 10.6-10.6 0-5.9-4.8-10.6-10.6-10.6z"/>
					</g>
				</g>
			</g>
		</g>
		<g id="&lt;Group&gt;">
			<g id="&lt;Group&gt;">
				<g id="&lt;Group&gt;">
					<path id="&lt;Compound Path&gt;" class="s3" d="m412.6 473.5c-1 0-1.8-0.8-1.8-1.8v-12c0-1 0.8-1.8 1.8-1.8 1 0 1.8 0.8 1.8 1.8v12c0 1-0.8 1.8-1.8 1.8zm0-24c-1 0-1.8-0.8-1.8-1.8v-11.9c0-1 0.8-1.8 1.8-1.8 1 0 1.8 0.8 1.8 1.8v11.9c0 1-0.8 1.8-1.8 1.8zm0-23.9c-1 0-1.8-0.8-1.8-1.8v-12c0-1 0.8-1.8 1.8-1.8 1 0 1.8 0.8 1.8 1.8v12c0 1-0.8 1.8-1.8 1.8zm0-24c-1 0-1.8-0.8-1.8-1.8v-12c0-1 0.8-1.8 1.8-1.8 1 0 1.8 0.8 1.8 1.8v12c0 1-0.8 1.8-1.8 1.8zm0-24c-1 0-1.8-0.8-1.8-1.8v-11.9c0-1 0.8-1.8 1.8-1.8 1 0 1.8 0.8 1.8 1.8v11.9c0 1-0.8 1.8-1.8 1.8zm0-23.9c-1 0-1.8-0.8-1.8-1.8v-12c0-1 0.8-1.8 1.8-1.8 1 0 1.8 0.8 1.8 1.8v12c0 1-0.8 1.8-1.8 1.8zm190.3-21.6c-1 0-1.8-0.8-1.8-1.8v-6.7c0-1 0.8-1.8 1.8-1.8 1 0 1.8 0.8 1.8 1.8v6.7c0 1-0.8 1.8-1.8 1.8zm-190.3-2.4c-1 0-1.8-0.8-1.8-1.8v-12c0-1 0.8-1.8 1.8-1.8 1 0 1.8 0.8 1.8 1.8v12c0 1-0.8 1.8-1.8 1.8zm190.3-16.3c-1 0-1.8-0.8-1.8-1.8v-11.9c0-1 0.8-1.8 1.8-1.8 1 0 1.8 0.8 1.8 1.8v11.9c0 1-0.8 1.8-1.8 1.8zm-190.3-7.7c-1 0-1.8-0.8-1.8-1.8v-12c0-0.9 0.8-1.8 1.8-1.8 1 0 1.8 0.9 1.8 1.8v12c0 1-0.8 1.8-1.8 1.8zm190.3-16.2c-1 0-1.8-0.8-1.8-1.8v-12c0-1 0.8-1.8 1.8-1.8 1 0 1.8 0.8 1.8 1.8v12c0 1-0.8 1.8-1.8 1.8zm-190.3-7.7c-1 0-1.8-0.8-1.8-1.8v-12c0-1 0.8-1.8 1.8-1.8 1 0 1.8 0.8 1.8 1.8v12c0 1-0.8 1.8-1.8 1.8zm190.3-16.3c-1 0-1.8-0.8-1.8-1.8v-12c0-1 0.8-1.8 1.8-1.8 1 0 1.8 0.8 1.8 1.8v12c0 1-0.8 1.8-1.8 1.8zm-190.3-7.7c-1 0-1.8-0.8-1.8-1.8v-12c0-1 0.8-1.8 1.8-1.8 1 0 1.8 0.8 1.8 1.8v12c0 1-0.8 1.8-1.8 1.8zm190.3-16.3c-1 0-1.8-0.8-1.8-1.8v-11.9c0-1 0.8-1.8 1.8-1.8 1 0 1.8 0.8 1.8 1.8v11.9c0 1-0.8 1.8-1.8 1.8zm-190.3-7.7c-1 0-1.8-0.8-1.8-1.8v-12c0-1 0.8-1.8 1.8-1.8 1 0 1.8 0.8 1.8 1.8v12c0 1-0.8 1.8-1.8 1.8zm190.3-16.2c-1 0-1.8-0.8-1.8-1.8v-12c0-1 0.8-1.8 1.8-1.8 1 0 1.8 0.8 1.8 1.8v12c0 1-0.8 1.8-1.8 1.8zm-190.3-7.7c-1 0-1.8-0.9-1.8-1.8v-12c0-1 0.8-1.8 1.8-1.8 1 0 1.8 0.8 1.8 1.8v12c0 0.9-0.8 1.8-1.8 1.8zm190.2-16.3c-0.9 0-1.7-0.7-1.8-1.7-0.2-3.8-0.9-7.6-2.2-11.2-0.3-1 0.2-2 1.2-2.3 0.9-0.3 1.9 0.2 2.2 1.1 1.4 3.9 2.2 8 2.4 12.2 0.1 1-0.7 1.8-1.7 1.9q0 0-0.1 0zm-189-7.6q-0.2 0-0.4-0.1c-1-0.2-1.6-1.2-1.4-2.1 1-4.1 2.5-8 4.5-11.6 0.5-0.9 1.6-1.2 2.5-0.7 0.8 0.5 1.1 1.6 0.7 2.4-1.9 3.4-3.3 7-4.2 10.7-0.2 0.8-0.9 1.4-1.7 1.4zm181.4-14.8c-0.6 0-1.2-0.3-1.5-0.8-2.2-3.1-4.8-6-7.7-8.4-0.8-0.7-0.9-1.8-0.3-2.5 0.7-0.8 1.8-0.9 2.6-0.3 3.2 2.7 6 5.8 8.3 9.2 0.6 0.8 0.4 1.9-0.4 2.5q-0.5 0.3-1 0.3zm-169.9-5.9c-0.5 0-1-0.2-1.3-0.5-0.7-0.7-0.7-1.9 0-2.6 2.9-2.9 6.2-5.5 9.8-7.6 0.9-0.4 2-0.1 2.5 0.7 0.5 0.9 0.2 2-0.7 2.5-3.3 1.9-6.4 4.2-9.1 7-0.3 0.3-0.8 0.5-1.2 0.5zm151.7-9.2q-0.4 0-0.8-0.2c-3.5-1.6-7.2-2.6-10.9-3.2-1-0.1-1.7-1.1-1.6-2 0.2-1 1.1-1.7 2.1-1.6 4.1 0.7 8.1 1.8 11.9 3.5 0.9 0.4 1.3 1.5 0.9 2.4-0.3 0.7-0.9 1.1-1.6 1.1zm-131.2-2.5c-0.8 0-1.5-0.6-1.7-1.4-0.3-1 0.3-1.9 1.3-2.2 3.6-0.9 7.3-1.3 11.1-1.3h1.2c1 0 1.8 0.8 1.8 1.8 0 0.9-0.8 1.7-1.8 1.7h-1.2c-3.5 0-6.9 0.5-10.3 1.3q-0.2 0.1-0.4 0.1zm107.8-1.4h-12c-1 0-1.8-0.8-1.8-1.7 0-1 0.8-1.8 1.8-1.8h12c0.9 0 1.8 0.8 1.8 1.8 0 0.9-0.9 1.7-1.8 1.7zm-24 0h-12c-1 0-1.8-0.8-1.8-1.7 0-1 0.8-1.8 1.8-1.8h12c1 0 1.8 0.8 1.8 1.8 0 0.9-0.8 1.7-1.8 1.7zm-24 0h-12c-1 0-1.8-0.8-1.8-1.7 0-1 0.8-1.8 1.8-1.8h12c1 0 1.8 0.8 1.8 1.8 0 0.9-0.8 1.7-1.8 1.7zm-24 0h-11.9c-1 0-1.8-0.8-1.8-1.7 0-1 0.8-1.8 1.8-1.8h11.9c1 0 1.8 0.8 1.8 1.8 0 0.9-0.8 1.7-1.8 1.7z"/>
				</g>
			</g>
			<g id="&lt;Group&gt;">
				<g id="&lt;Group&gt;">
					<g id="&lt;Group&gt;">
						<path id="&lt;Path&gt;" class="s3" d="m507.8 157.2c3.7 0 6.7-3 6.7-6.7 0-3.8-3-6.8-6.7-6.8-3.8 0-6.8 3-6.8 6.8 0 3.7 3 6.7 6.8 6.7z"/>
					</g>
				</g>
				<g id="&lt;Group&gt;">
					<g id="&lt;Group&gt;">
						<path id="&lt;Compound Path&gt;" fill-rule="evenodd" class="s3" d="m507.8 163.1c-7 0-12.7-5.7-12.7-12.7 0-6.9 5.7-12.6 12.7-12.6 6.9 0 12.6 5.7 12.6 12.6 0 7-5.7 12.7-12.6 12.7zm0-23.8c-6.2 0-11.2 5-11.2 11.1 0 6.2 5 11.2 11.2 11.2 6.1 0 11.1-5 11.1-11.2 0-6.1-5-11.1-11.1-11.1z"/>
					</g>
				</g>
			</g>
		</g>
		<g id="&lt;Group&gt;">
			<path id="&lt;Path&gt;" class="s4" d="m515.8 267.6h-115.9v-19.8h115.9z"/>
			<g id="&lt;Group&gt;">
				<path id="&lt;Path&gt;" class="s5" d="m609.5 240.4h-82.9c-6 0-11.7 2-15.6 5.5l-22.5 16.8h-88.7c-3.7 0-6.7 3-6.7 6.8v122.7c0 3.7 3 6.7 6.7 6.7h216.1c3.7 0 6.7-3 6.7-6.7v-118.6-4.1-14.2c0-7.9-5.9-14.9-13.1-14.9z"/>
			</g>
		</g>
		<path id="&lt;Compound Path&gt;" fill-rule="evenodd" class="s2" d="m280.7 611.4l11.9 12.3c3.7 3.9 3.6 10-0.2 13.7l-12.3 11.9q-0.6 0.6-1.3 1.1c5 8.1 8.4 16.8 10.3 25.9q0.8-0.2 1.7-0.2l17.1 0.2c5.3 0.1 9.6 4.4 9.6 9.8l-0.2 17.1c0 2.7-1.2 5.1-3 6.8-1.7 1.7-4.1 2.8-6.8 2.7l-17.1-0.2q-0.9 0-1.7-0.1c-2.1 9.2-5.9 18.1-11.3 26.3q0.7 0.5 1.3 1.1l11.9 12.3c3.7 3.8 3.6 9.9-0.2 13.6l-12.3 11.9c-3.8 3.8-9.9 3.7-13.6-0.2l-12-12.3q-0.5-0.6-1-1.3c-8.1 5-16.9 8.4-25.9 10.4q0.1 0.8 0.1 1.6l-0.2 17.2c0 2.6-1.1 5.1-2.9 6.8-1.8 1.7-4.2 2.7-6.8 2.7l-17.1-0.2c-2.6 0-5-1-6.8-2.9-1.8-1.8-2.8-4.3-2.8-6.8l0.2-17.1q0-0.9 0.2-1.7c-9.3-2.2-18.2-6-26.4-11.3q-0.4 0.6-1 1.2l-12.3 12c-3.9 3.7-10 3.6-13.7-0.3l-11.9-12.2c-3.7-3.9-3.6-10 0.2-13.7l12.3-11.9q0.6-0.6 1.3-1.1c-5-8.1-8.4-16.8-10.3-25.9q-0.8 0.2-1.7 0.2l-17.1-0.2c-5.3-0.1-9.6-4.4-9.6-9.8l0.2-17.1c0-2.6 1.1-5 2.9-6.8q0 0 0.1 0c1.8-1.8 4.2-2.8 6.8-2.7l17.1 0.1q0.9 0.1 1.7 0.2c2.1-9.2 5.9-18.1 11.3-26.3q-0.7-0.5-1.3-1.1l-11.9-12.3c-3.7-3.8-3.6-9.9 0.2-13.6l12.3-12c3.8-3.7 9.9-3.6 13.6 0.3l12 12.2q0.5 0.7 1 1.3c8.1-4.9 16.9-8.4 25.9-10.3q-0.1-0.8-0.1-1.7l0.2-17.1c0-5.3 4.4-9.6 9.7-9.5l17.1 0.2c5.4 0 9.6 4.4 9.6 9.7l-0.2 17.1q0 0.9-0.2 1.7c9.3 2.2 18.2 6 26.4 11.3q0.4-0.7 1-1.3l12.3-11.9c3.9-3.7 10-3.6 13.7 0.2zm-39.7 50.5c-17.4-18-46.2-18.4-64.2-1-17.9 17.4-18.4 46.2-1 64.1 17.4 18 46.2 18.4 64.2 1 17.9-17.4 18.4-46.2 1-64.1z"/>
		<g id="&lt;Group&gt;">
			<g id="&lt;Group&gt;">
				<path id="&lt;Path&gt;" class="s6" d="m593 751.5h-184v88.2h184z"/>
			</g>
			<g id="&lt;Group&gt;">
				<path id="&lt;Path&gt;" class="s7" d="m806.6 335.2v401.7c0 12.9-10.5 23.4-23.4 23.4h-564.4c-12.9 0-23.4-10.5-23.4-23.4v-401.7c0-12.9 10.5-23.4 23.4-23.4h564.4c12.9 0 23.4 10.5 23.4 23.4z"/>
			</g>
			<path id="&lt;Path&gt;" class="s8" d="m512 732c0 6.6-5.4 12-12 12-6.6 0-12-5.4-12-12 0-6.6 5.4-12 12-12 6.6 0 12 5.4 12 12z"/>
			<g id="&lt;Group&gt;">
				<path id="&lt;Path&gt;" class="s1" d="m799.2 705.5v-365.8c0-11.1-8.7-20.1-19.4-20.1h-557.6c-10.7 0-19.4 9-19.4 20.1v365.8z"/>
			</g>
			<g id="&lt;Group&gt;">
				<path id="&lt;Path&gt;" class="s7" d="m629.2 849.2h-256.4v-0.6c0-10.2 8.3-18.4 18.4-18.4h219.6c10.1 0 18.4 8.2 18.4 18.4z"/>
			</g>
		</g>
		<g id="&lt;Group&gt;">
			<g id="&lt;Group&gt;">
				<path id="&lt;Path&gt;" class="s3" d="m250.9 315.9c0-17.7-13.4-32.3-30.6-34.3q0.2-1.7 0.3-3.5c0-17-13.8-30.7-30.8-30.7-4.5 0-8.8 1-12.7 2.8-8.2-12.8-22.5-21.3-38.8-21.3-25.4 0-46 20.7-46 46.1q0 3.3 0.5 6.6c-17.4 1.7-31 16.4-31 34.3 0 19 15.4 34.5 34.5 34.5h121.8v-0.1c18.2-0.9 32.8-16 32.8-34.4z"/>
			</g>
			<g id="&lt;Group&gt;">
				<path id="&lt;Path&gt;" class="s5" d="m178.4 376.7v-53.6h-44.2v53.6h-13.8l35.9 33.6 35.9-33.6z"/>
			</g>
		</g>
		<g id="&lt;Group&gt;">
			<g id="&lt;Group&gt;">
				<path id="&lt;Path&gt;" class="s9" d="m666.5 341.2h-108.5c-10 0-18.2-8.1-18.2-18.1v-36.1c0-10.1 8.2-18.2 18.2-18.2h108.5c10 0 18.1 8.1 18.1 18.2v36.1c0 10-8.1 18.1-18.1 18.1z"/>
			</g>
		</g>
		<g id="&lt;Group&gt;">
			<g id="&lt;Group&gt;">
				<path id="&lt;Path&gt;" class="s9" d="m261.6 862.2h-108.5c-10.1 0-18.2-8.1-18.2-18.2v-36c0-10.1 8.1-18.2 18.2-18.2h108.5c10 0 18.1 8.1 18.1 18.2v36c0 10.1-8.1 18.2-18.1 18.2z"/>
			</g>
		</g>
		<g id="&lt;Group&gt;">
			<g id="&lt;Group&gt;">
				<path id="&lt;Path&gt;" class="s9" d="m313.7 555.9h-108.5c-10 0-18.1-8.1-18.1-18.1v-36.1c0-10 8.1-18.2 18.1-18.2h108.5c10 0 18.2 8.2 18.2 18.2v36.1c0 10-8.2 18.1-18.2 18.1z"/>
			</g>
		</g>
		<g id="&lt;Group&gt;">
			<g id="&lt;Group&gt;">
				<path id="&lt;Path&gt;" class="s3" d="m695.9 787.7h-5.1c-0.9 0-1.6-0.7-1.6-1.5 0-0.9 0.7-1.6 1.6-1.6h5.1c0.9 0 1.6 0.7 1.6 1.6 0 0.8-0.7 1.5-1.6 1.5z"/>
			</g>
			<g id="&lt;Group&gt;">
				<path id="&lt;Compound Path&gt;" class="s3" d="m820 787.7h-10.4c-0.8 0-1.5-0.7-1.5-1.5 0-0.9 0.7-1.6 1.5-1.6h10.4c0.8 0 1.5 0.7 1.5 1.6 0 0.8-0.7 1.5-1.5 1.5zm-20.7 0h-10.3c-0.9 0-1.6-0.7-1.6-1.5 0-0.9 0.7-1.6 1.6-1.6h10.3c0.8 0 1.5 0.7 1.5 1.6 0 0.8-0.7 1.5-1.5 1.5zm-20.7 0h-10.3c-0.9 0-1.6-0.7-1.6-1.5 0-0.9 0.7-1.6 1.6-1.6h10.3c0.9 0 1.6 0.7 1.6 1.6 0 0.8-0.7 1.5-1.6 1.5zm-20.7 0h-10.3c-0.8 0-1.5-0.7-1.5-1.5 0-0.9 0.7-1.6 1.5-1.6h10.3c0.9 0 1.6 0.7 1.6 1.6 0 0.8-0.7 1.5-1.6 1.5zm-20.6 0h-10.4c-0.8 0-1.5-0.7-1.5-1.5 0-0.9 0.7-1.6 1.5-1.6h10.4c0.8 0 1.5 0.7 1.5 1.6 0 0.8-0.7 1.5-1.5 1.5zm-20.7 0h-10.3c-0.9 0-1.6-0.7-1.6-1.5 0-0.9 0.7-1.6 1.6-1.6h10.3c0.9 0 1.6 0.7 1.6 1.6 0 0.8-0.7 1.5-1.6 1.5zm113.6-1.2c-0.7 0-1.3-0.4-1.5-1.2-0.2-0.8 0.3-1.6 1.1-1.8 3.3-0.8 6.4-2 9.3-3.5 0.8-0.4 1.7-0.1 2.1 0.6 0.4 0.8 0.1 1.7-0.6 2.1-3.2 1.7-6.6 2.9-10 3.8q-0.2 0-0.4 0zm18.2-9.4c-0.5 0-0.9-0.2-1.2-0.5-0.6-0.7-0.5-1.7 0.1-2.2 2.5-2.2 4.8-4.7 6.7-7.4 0.4-0.7 1.4-0.9 2.1-0.4 0.7 0.5 0.9 1.4 0.4 2.1-2 3-4.4 5.6-7.1 8-0.3 0.3-0.7 0.4-1 0.4zm11.7-16.8q-0.3 0-0.6-0.1c-0.8-0.3-1.2-1.2-0.9-2 1.2-3.1 2-6.3 2.4-9.6 0.2-0.9 0.9-1.5 1.8-1.4 0.8 0.1 1.4 0.9 1.3 1.8-0.4 3.5-1.3 7-2.6 10.3-0.2 0.6-0.8 1-1.4 1zm2.8-20.3c-0.8 0-1.5-0.7-1.5-1.6v-10.3c0-0.8 0.7-1.5 1.5-1.5 0.9 0 1.6 0.7 1.6 1.5v10.3c0 0.9-0.7 1.6-1.6 1.6zm0-20.7c-0.8 0-1.5-0.7-1.5-1.5v-10.4c0-0.8 0.7-1.5 1.5-1.5 0.9 0 1.6 0.7 1.6 1.5v10.4c0 0.8-0.7 1.5-1.6 1.5zm0-20.7c-0.8 0-1.5-0.6-1.5-1.5v-10.3c0-0.9 0.7-1.6 1.5-1.6 0.9 0 1.6 0.7 1.6 1.6v10.3c0 0.9-0.7 1.5-1.6 1.5zm0-20.6c-0.8 0-1.5-0.7-1.5-1.6v-10.3c0-0.9 0.7-1.6 1.5-1.6 0.9 0 1.6 0.7 1.6 1.6v10.3c0 0.9-0.7 1.6-1.6 1.6zm0-20.7c-0.8 0-1.5-0.7-1.5-1.5v-10.4c0-0.8 0.7-1.5 1.5-1.5 0.9 0 1.6 0.7 1.6 1.5v10.4c0 0.8-0.7 1.5-1.6 1.5zm0-20.7c-0.8 0-1.5-0.7-1.5-1.5v-10.3c0-0.9 0.7-1.6 1.5-1.6 0.9 0 1.6 0.7 1.6 1.6v10.3c0 0.8-0.7 1.5-1.6 1.5zm0-20.6c-0.8 0-1.5-0.7-1.5-1.6v-10.3c0-0.9 0.7-1.6 1.5-1.6 0.9 0 1.6 0.7 1.6 1.6v10.3c0 0.9-0.7 1.6-1.6 1.6z"/>
			</g>
			<g id="&lt;Group&gt;">
				<path id="&lt;Path&gt;" class="s3" d="m862.9 595.3c-0.8 0-1.5-0.7-1.5-1.6v-3.6h-1.3c-0.9 0-1.6-0.7-1.6-1.6 0-0.8 0.7-1.5 1.6-1.5h2.8c0.9 0 1.6 0.7 1.6 1.5v5.2c0 0.9-0.7 1.6-1.6 1.6z"/>
			</g>
		</g>
		<g id="&lt;Group&gt;">
			<g id="&lt;Group&gt;">
				<path id="&lt;Path&gt;" class="s3" d="m814.8 432h-135.6c-8.1 0-14.7 6.6-14.7 14.8v281.8c0 8.1 6.6 14.7 14.7 14.7h135.6c8.2 0 14.8-6.6 14.8-14.7v-281.8c0-8.2-6.6-14.8-14.8-14.8z"/>
			</g>
			<g id="&lt;Group&gt;">
				<path id="&lt;Path&gt;" class="s10" d="m777.3 448.2h-74.6c-1.2 0-2.3-1-2.3-2.3v-0.3c0-1.3 1.1-2.4 2.3-2.4h74.6c1.3 0 2.4 1.1 2.4 2.4v0.3c0 1.3-1.1 2.3-2.4 2.3z"/>
				<path id="&lt;Path&gt;" class="s10" d="m793.6 445.7c0 1.4-1.1 2.5-2.5 2.5-1.3 0-2.5-1.1-2.5-2.5 0-1.3 1.2-2.5 2.5-2.5 1.4 0 2.5 1.2 2.5 2.5z"/>
			</g>
			<path id="&lt;Path&gt;" class="s0" d="m820.5 550.6h-147v-90.3h147z"/>
			<g id="&lt;Group&gt;">
				<path id="&lt;Path&gt;" class="s5" d="m774.9 498l-10.8 12.9-27.9-33.4-46.6 55.8h55.8 37.5 21.5z"/>
			</g>
			<g id="&lt;Group&gt;">
				<path id="&lt;Path&gt;" class="s0" d="m742.9 710.9h-69.4v-40.7h69.4z"/>
				<g id="&lt;Group&gt;">
					<path id="&lt;Path&gt;" class="s5" d="m721.4 686l-5.1 6.1-13.2-15.8-22 26.3h26.4 17.6 10.2z"/>
				</g>
			</g>
			<g id="&lt;Group&gt;" style="mix-blend-mode: multiply">
				<g id="&lt;Group&gt;">
					<g id="&lt;Group&gt;">
						<g id="&lt;Group&gt;">
							<path id="&lt;Path&gt;" class="s3" d="m742.9 577.7h-69.4v-3.9h69.4z"/>
						</g>
					</g>
					<g id="&lt;Group&gt;">
						<path id="&lt;Path&gt;" class="s3" d="m742.9 569.5h-69.4v-3.9h69.4z"/>
					</g>
					<g id="&lt;Group&gt;">
						<g id="&lt;Group&gt;">
							<path id="&lt;Path&gt;" class="s3" d="m717.4 585.7h-43.9v-3.9h43.9z"/>
						</g>
					</g>
					<g id="&lt;Group&gt;">
						<g id="&lt;Group&gt;">
							<path id="&lt;Path&gt;" class="s3" d="m742.9 585.7h-22.4v-3.9h22.4z"/>
						</g>
					</g>
					<g id="&lt;Group&gt;">
						<g id="&lt;Group&gt;">
							<path id="&lt;Path&gt;" class="s3" d="m734.9 593.6h-61.4v-3.9h61.4z"/>
						</g>
					</g>
					<g id="&lt;Group&gt;">
						<g id="&lt;Group&gt;">
							<path id="&lt;Path&gt;" class="s3" d="m694.9 601.8h-21.4v-3.9h21.4z"/>
						</g>
					</g>
					<g id="&lt;Group&gt;">
						<g id="&lt;Group&gt;">
							<path id="&lt;Path&gt;" class="s3" d="m713.9 601.8h-15.4v-3.9h15.4z"/>
						</g>
					</g>
				</g>
			</g>
			<g id="&lt;Group&gt;" style="mix-blend-mode: multiply">
				<g id="&lt;Group&gt;">
					<g id="&lt;Group&gt;">
						<g id="&lt;Group&gt;">
							<path id="&lt;Path&gt;" class="s3" d="m820.5 632.3h-69.4v-3.9h69.4z"/>
						</g>
					</g>
					<g id="&lt;Group&gt;">
						<path id="&lt;Path&gt;" class="s3" d="m820.5 624.1h-69.4v-3.9h69.4z"/>
					</g>
					<g id="&lt;Group&gt;">
						<g id="&lt;Group&gt;">
							<path id="&lt;Path&gt;" class="s3" d="m795 640.3h-43.9v-3.9h43.9z"/>
						</g>
					</g>
					<g id="&lt;Group&gt;">
						<g id="&lt;Group&gt;">
							<path id="&lt;Path&gt;" class="s3" d="m820.5 640.3h-22.4v-3.9h22.4z"/>
						</g>
					</g>
					<g id="&lt;Group&gt;">
						<g id="&lt;Group&gt;">
							<path id="&lt;Path&gt;" class="s3" d="m812.5 648.2h-61.4v-3.9h61.4z"/>
						</g>
					</g>
					<g id="&lt;Group&gt;">
						<g id="&lt;Group&gt;">
							<path id="&lt;Path&gt;" class="s3" d="m772.4 656.4h-21.3v-3.9h21.3z"/>
						</g>
					</g>
					<g id="&lt;Group&gt;">
						<g id="&lt;Group&gt;">
							<path id="&lt;Path&gt;" class="s3" d="m791.5 656.4h-15.4v-3.9h15.4z"/>
						</g>
					</g>
				</g>
			</g>
			<g id="&lt;Group&gt;" style="mix-blend-mode: multiply">
				<g id="&lt;Group&gt;">
					<g id="&lt;Group&gt;">
						<g id="&lt;Group&gt;">
							<path id="&lt;Path&gt;" class="s3" d="m820.5 577.7h-69.4v-3.9h69.4z"/>
						</g>
					</g>
					<g id="&lt;Group&gt;">
						<path id="&lt;Path&gt;" class="s3" d="m820.5 569.5h-69.4v-3.9h69.4z"/>
					</g>
					<g id="&lt;Group&gt;">
						<g id="&lt;Group&gt;">
							<path id="&lt;Path&gt;" class="s3" d="m795 585.7h-43.9v-3.9h43.9z"/>
						</g>
					</g>
					<g id="&lt;Group&gt;">
						<g id="&lt;Group&gt;">
							<path id="&lt;Path&gt;" class="s3" d="m820.5 585.7h-22.4v-3.9h22.4z"/>
						</g>
					</g>
					<g id="&lt;Group&gt;">
						<g id="&lt;Group&gt;">
							<path id="&lt;Path&gt;" class="s3" d="m820.5 593.6h-69.4v-3.9h69.4z"/>
						</g>
					</g>
					<g id="&lt;Group&gt;">
						<g id="&lt;Group&gt;">
							<path id="&lt;Path&gt;" class="s3" d="m772.4 601.8h-21.3v-3.9h21.3z"/>
						</g>
					</g>
					<g id="&lt;Group&gt;">
						<g id="&lt;Group&gt;">
							<path id="&lt;Path&gt;" class="s3" d="m820.5 601.8h-44.4v-3.9h44.4z"/>
						</g>
					</g>
				</g>
			</g>
			<g id="&lt;Group&gt;" style="mix-blend-mode: multiply">
				<g id="&lt;Group&gt;">
					<g id="&lt;Group&gt;">
						<g id="&lt;Group&gt;">
							<path id="&lt;Path&gt;" class="s3" d="m742.9 632.3h-69.4v-3.9h69.4z"/>
						</g>
					</g>
					<g id="&lt;Group&gt;">
						<path id="&lt;Path&gt;" class="s3" d="m742.9 624.1h-69.4v-3.9h69.4z"/>
					</g>
					<g id="&lt;Group&gt;">
						<g id="&lt;Group&gt;">
							<path id="&lt;Path&gt;" class="s3" d="m742.9 640.3h-69.4v-3.9h69.4z"/>
						</g>
					</g>
					<g id="&lt;Group&gt;">
						<g id="&lt;Group&gt;">
							<path id="&lt;Path&gt;" class="s3" d="m742.9 648.2h-69.4v-3.9h69.4z"/>
						</g>
					</g>
					<g id="&lt;Group&gt;">
						<g id="&lt;Group&gt;">
							<path id="&lt;Path&gt;" class="s3" d="m742.9 656.4h-69.4v-3.9h69.4z"/>
						</g>
					</g>
				</g>
			</g>
			<g id="&lt;Group&gt;" style="mix-blend-mode: multiply">
				<g id="&lt;Group&gt;">
					<g id="&lt;Group&gt;">
						<g id="&lt;Group&gt;">
							<path id="&lt;Path&gt;" class="s3" d="m751.1 683.6h69.4v-3.9h-69.4z"/>
						</g>
					</g>
					<g id="&lt;Group&gt;">
						<path id="&lt;Path&gt;" class="s3" d="m751.1 675.4h69.4v-3.9h-69.4z"/>
					</g>
					<g id="&lt;Group&gt;">
						<g id="&lt;Group&gt;">
							<path id="&lt;Path&gt;" class="s3" d="m776.6 691.5h43.9v-3.9h-43.9z"/>
						</g>
					</g>
					<g id="&lt;Group&gt;">
						<g id="&lt;Group&gt;">
							<path id="&lt;Path&gt;" class="s3" d="m751.1 691.5h22.4v-3.9h-22.4z"/>
						</g>
					</g>
					<g id="&lt;Group&gt;">
						<g id="&lt;Group&gt;">
							<path id="&lt;Path&gt;" class="s3" d="m751.1 699.5h53.3v-3.9h-53.3z"/>
						</g>
					</g>
					<g id="&lt;Group&gt;">
						<g id="&lt;Group&gt;">
							<path id="&lt;Path&gt;" class="s3" d="m808.1 699.5h12.4v-3.9h-12.4z"/>
						</g>
					</g>
					<g id="&lt;Group&gt;">
						<g id="&lt;Group&gt;">
							<path id="&lt;Path&gt;" class="s3" d="m769.3 707.7h51.2v-3.9h-51.2z"/>
						</g>
					</g>
					<g id="&lt;Group&gt;">
						<g id="&lt;Group&gt;">
							<path id="&lt;Path&gt;" class="s3" d="m751.1 707.7h15.4v-3.9h-15.4z"/>
						</g>
					</g>
				</g>
			</g>
		</g>
		<g id="&lt;Group&gt;">
			<g id="&lt;Group&gt;">
				<path id="&lt;Path&gt;" class="s9" d="m697.3 815.7h-108.5c-10 0-18.1-8.1-18.1-18.1v-36.1c0-10 8.1-18.2 18.1-18.2h108.5c10 0 18.2 8.2 18.2 18.2v36.1c0 10-8.2 18.1-18.2 18.1z"/>
			</g>
		</g>
		<g id="&lt;Group&gt;">
			<g id="&lt;Group&gt;">
				<g id="&lt;Group&gt;">
					<path id="&lt;Path&gt;" class="s3" d="m868.5 695.6c0 3.8-3 6.8-6.7 6.8-3.8 0-6.8-3-6.8-6.8 0-3.7 3-6.7 6.8-6.7 3.7 0 6.7 3 6.7 6.7z"/>
				</g>
				<g id="&lt;Group&gt;">
					<path id="&lt;Compound Path&gt;" fill-rule="evenodd" class="s3" d="m861.8 708.3c-7 0-12.7-5.7-12.7-12.7 0-6.9 5.7-12.6 12.7-12.6 6.9 0 12.6 5.7 12.6 12.6 0 7-5.7 12.7-12.6 12.7zm0-23.8c-6.2 0-11.1 5-11.1 11.1 0 6.2 4.9 11.2 11.1 11.2 6.1 0 11.1-5 11.1-11.2 0-6.1-5-11.1-11.1-11.1z"/>
				</g>
			</g>
		</g>
		<g id="&lt;Group&gt;">
			<g id="&lt;Group&gt;">
				<path id="&lt;Path&gt;" class="s9" d="m920 596.5h-108.4c-10.1 0-18.2-8.1-18.2-18.1v-36.1c0-10 8.1-18.2 18.2-18.2h108.4c10.1 0 18.2 8.2 18.2 18.2v36.1c0 10-8.1 18.1-18.2 18.1z"/>
			</g>
		</g>
		<g id="&lt;Group&gt;">
			<g id="&lt;Group&gt;">
				<g id="&lt;Group&gt;">
					<path id="&lt;Path&gt;" class="s10" d="m530.6 613.9h-45.5v-4.1h45.5z"/>
				</g>
				<g id="&lt;Group&gt;">
					<path id="&lt;Path&gt;" class="s10" d="m647.8 613.9h-105.5v-4.1h105.5z"/>
				</g>
				<g id="&lt;Group&gt;">
					<path id="&lt;Path&gt;" class="s10" d="m593.7 645.4c-18.1 0-36.2 0-54.3-0.1v-4.1c36.1 0.1 72.6 0.1 108.4 0v4.1c-17.9 0.1-35.9 0.1-54.1 0.1z"/>
				</g>
				<g id="&lt;Group&gt;">
					<path id="&lt;Path&gt;" class="s10" d="m647.8 629.6h-125v-4.1h125z"/>
				</g>
				<g id="&lt;Group&gt;">
					<path id="&lt;Path&gt;" class="s10" d="m647.8 661.1h-131.8v-4.2h131.8z"/>
				</g>
				<g id="&lt;Group&gt;">
					<path id="&lt;Path&gt;" class="s10" d="m647.8 676.7h-150.1v-4.1h150.1z"/>
				</g>
			</g>
			<g id="&lt;Group&gt;">
				<g id="&lt;Group&gt;">
					<g id="&lt;Group&gt;">
						<path id="&lt;Path&gt;" class="s3" d="m309.4 377.6h-70.6v-4.2h70.6z"/>
					</g>
				</g>
				<g id="&lt;Group&gt;">
					<g id="&lt;Group&gt;">
						<path id="&lt;Path&gt;" class="s3" d="m473.4 377.6h-72.8v-4.2h72.8z"/>
					</g>
				</g>
				<g id="&lt;Group&gt;">
					<g id="&lt;Group&gt;">
						<g id="&lt;Group&gt;">
							<path id="&lt;Path&gt;" class="s5" d="m473.4 393.3h-50.5v-4.2h50.5z"/>
						</g>
					</g>
				</g>
				<g id="&lt;Group&gt;">
					<g id="&lt;Group&gt;">
						<g id="&lt;Group&gt;">
							<path id="&lt;Path&gt;" class="s5" d="m473.4 424.7h-71.3v-4.1h71.3z"/>
						</g>
					</g>
				</g>
				<g id="&lt;Group&gt;">
					<g id="&lt;Group&gt;">
						<g id="&lt;Group&gt;">
							<path id="&lt;Path&gt;" class="s5" d="m473.4 440.4h-85.3v-4.2h85.3z"/>
						</g>
					</g>
				</g>
				<g id="&lt;Group&gt;">
					<g id="&lt;Group&gt;">
						<g id="&lt;Group&gt;">
							<path id="&lt;Path&gt;" class="s5" d="m473.4 458.7h-109.7v-4.1h109.7z"/>
						</g>
					</g>
				</g>
				<g id="&lt;Group&gt;">
					<g id="&lt;Group&gt;">
						<path id="&lt;Path&gt;" class="s5" d="m391.4 377.6h-70.6v-4.2h70.6z"/>
					</g>
				</g>
				<g id="&lt;Group&gt;">
					<g id="&lt;Group&gt;">
						<g id="&lt;Group&gt;">
							<path id="&lt;Path&gt;" class="s5" d="m416.4 409c-10.8 0-21.6 0-43.2 0l-14.1-0.1v-4.1h14.1c43.3 0.1 43.3 0.1 86.2 0h14v4.1l-14 0.1c-21.5 0-32.2 0-43 0z"/>
						</g>
					</g>
				</g>
				<g id="&lt;Group&gt;">
					<g id="&lt;Group&gt;">
						<path id="&lt;Path&gt;" class="s3" d="m292.9 409c-18.1 0-36.2 0-54.1-0.1v-4.1c35.8 0.1 72.3 0.1 108.4 0v4.1c-18.1 0.1-36.2 0.1-54.3 0.1z"/>
					</g>
				</g>
				<g id="&lt;Group&gt;">
					<g id="&lt;Group&gt;">
						<path id="&lt;Path&gt;" class="s3" d="m412.9 393.3h-174.1v-4.2h174.1z"/>
					</g>
				</g>
				<g id="&lt;Group&gt;">
					<g id="&lt;Group&gt;">
						<path id="&lt;Path&gt;" class="s3" d="m354.1 458.7h-115.3v-4.1h115.3z"/>
					</g>
				</g>
				<g id="&lt;Group&gt;">
					<g id="&lt;Group&gt;">
						<path id="&lt;Path&gt;" class="s3" d="m393.1 424.7h-154.3v-4.1h154.3z"/>
					</g>
				</g>
				<g id="&lt;Group&gt;">
					<g id="&lt;Group&gt;">
						<path id="&lt;Path&gt;" class="s3" d="m378.6 440.4h-139.8v-4.2h139.8z"/>
					</g>
				</g>
				<g id="&lt;Group&gt;">
					<g id="&lt;Group&gt;">
						<g id="&lt;Group&gt;">
							<path id="&lt;Path&gt;" class="s7" d="m226.9 375.5c0 1.6-1.3 2.9-2.9 2.9-1.5 0-2.8-1.3-2.8-2.9 0-1.6 1.3-2.8 2.8-2.8 1.6 0 2.9 1.2 2.9 2.8z"/>
						</g>
						<g id="&lt;Group&gt;">
							<path id="&lt;Path&gt;" class="s7" d="m226.9 391.2c0 1.6-1.3 2.8-2.9 2.8-1.5 0-2.8-1.2-2.8-2.8 0-1.6 1.3-2.9 2.8-2.9 1.6 0 2.9 1.3 2.9 2.9z"/>
						</g>
						<g id="&lt;Group&gt;">
							<path id="&lt;Path&gt;" class="s7" d="m226.9 406.9c0 1.5-1.3 2.8-2.9 2.8-1.5 0-2.8-1.3-2.8-2.8 0-1.6 1.3-2.9 2.8-2.9 1.6 0 2.9 1.3 2.9 2.9z"/>
						</g>
						<g id="&lt;Group&gt;">
							<path id="&lt;Path&gt;" class="s7" d="m226.9 422.6c0 1.5-1.3 2.8-2.9 2.8-1.5 0-2.8-1.3-2.8-2.8 0-1.6 1.3-2.9 2.8-2.9 1.6 0 2.9 1.3 2.9 2.9z"/>
						</g>
						<g id="&lt;Group&gt;">
							<path id="&lt;Path&gt;" class="s7" d="m226.9 438.3c0 1.6-1.3 2.9-2.9 2.9-1.5 0-2.8-1.3-2.8-2.9 0-1.6 1.3-2.8 2.8-2.8 1.6 0 2.9 1.2 2.9 2.8z"/>
						</g>
						<g id="&lt;Group&gt;">
							<path id="&lt;Path&gt;" class="s7" d="m226.9 456.6c0 1.6-1.3 2.9-2.9 2.9-1.5 0-2.8-1.3-2.8-2.9 0-1.5 1.3-2.8 2.8-2.8 1.6 0 2.9 1.3 2.9 2.8z"/>
						</g>
					</g>
				</g>
				<g id="&lt;Group&gt;">
					<path id="&lt;Path&gt;" class="s7" d="m492.2 466c-0.6 0-1-0.5-1-1v-91.8c0-0.6 0.4-1.1 1-1.1 0.6 0 1 0.5 1 1.1v91.8c0 0.5-0.4 1-1 1z"/>
				</g>
			</g>
			<g id="&lt;Group&gt;">
				<g id="&lt;Group&gt;">
					<path id="&lt;Compound Path&gt;" class="s10" d="m316.3 664h-6.4c-0.6 0-1-0.5-1-1.1 0-0.6 0.4-1 1-1h6.4c0.6 0 1 0.4 1 1 0 0.6-0.4 1.1-1 1.1zm-12.7 0h-6.4c-0.6 0-1-0.5-1-1.1 0-0.6 0.4-1 1-1h6.4c0.6 0 1 0.4 1 1 0 0.6-0.4 1.1-1 1.1zm-12.7 0h-2.6c-1.5 0-2.9-0.4-4.1-1.1-0.6-0.3-0.7-0.9-0.5-1.4 0.3-0.5 1-0.7 1.5-0.4 0.9 0.5 2 0.8 3.1 0.8h2.6c0.5 0 1 0.4 1 1 0 0.6-0.5 1.1-1 1.1zm-9.9-5.9c-0.5 0-0.9-0.3-1-0.8q-0.2-0.9-0.2-1.9v-4.7c0-0.6 0.4-1.1 1-1.1 0.6 0 1.1 0.5 1.1 1.1v4.7q0 0.7 0.1 1.4c0.1 0.6-0.2 1.1-0.8 1.3q-0.1 0-0.2 0zm-0.2-12.7c-0.6 0-1-0.5-1-1.1v-6.3c0-0.6 0.4-1.1 1-1.1 0.6 0 1.1 0.5 1.1 1.1v6.3c0 0.6-0.5 1.1-1.1 1.1zm0-12.7c-0.6 0-1-0.5-1-1.1v-6.3c0-0.6 0.4-1.1 1-1.1 0.6 0 1.1 0.5 1.1 1.1v6.3c0 0.6-0.5 1.1-1.1 1.1zm0-12.7c-0.6 0-1-0.5-1-1.1v-6.3c0-0.6 0.4-1.1 1-1.1 0.6 0 1.1 0.5 1.1 1.1v6.3c0 0.6-0.5 1.1-1.1 1.1zm0-12.7c-0.6 0-1-0.5-1-1.1v-0.7c0-2.2 0.8-4.3 2.2-5.8 0.4-0.5 1.1-0.5 1.5-0.1 0.4 0.4 0.5 1.1 0.1 1.5-1.1 1.2-1.7 2.7-1.7 4.4v0.7c0 0.6-0.5 1.1-1.1 1.1zm39.4-8.3h-6.3c-0.6 0-1.1-0.4-1.1-1 0-0.6 0.5-1.1 1.1-1.1h6.3c0.6 0 1.1 0.5 1.1 1.1 0 0.6-0.5 1-1.1 1zm-12.7 0h-6.3c-0.6 0-1.1-0.4-1.1-1 0-0.6 0.5-1.1 1.1-1.1h6.3c0.6 0 1.1 0.5 1.1 1.1 0 0.6-0.5 1-1.1 1zm-12.7 0h-6.3c-0.6 0-1.1-0.4-1.1-1 0-0.6 0.5-1.1 1.1-1.1h6.3c0.6 0 1.1 0.5 1.1 1.1 0 0.6-0.5 1-1.1 1z"/>
				</g>
				<g id="&lt;Group&gt;">
					<path id="&lt;Path&gt;" class="s10" d="m339.3 640.7h-34v-4.2h34z"/>
				</g>
				<g id="&lt;Group&gt;">
					<path id="&lt;Path&gt;" class="s10" d="m403.2 640.7h-55v-4.2h55z"/>
				</g>
				<g id="&lt;Group&gt;">
					<path id="&lt;Path&gt;" class="s10" d="m403.2 676.7h-34v-4.2h34z"/>
				</g>
				<g id="&lt;Group&gt;">
					<path id="&lt;Path&gt;" class="s10" d="m360.3 676.7h-55v-4.2h55z"/>
				</g>
				<g id="&lt;Group&gt;">
					<path id="&lt;Path&gt;" class="s10" d="m365.1 653h-59.8v-4.3h59.8z"/>
				</g>
				<g id="&lt;Group&gt;">
					<path id="&lt;Path&gt;" class="s10" d="m403.2 653h-29.2v-4.3h29.2z"/>
				</g>
				<g id="&lt;Group&gt;">
					<path id="&lt;Path&gt;" class="s10" d="m354.5 665h-49.2v-4.2h49.2z"/>
				</g>
				<g id="&lt;Group&gt;">
					<path id="&lt;Path&gt;" class="s10" d="m403.2 665h-33.4v-4.2h33.4z"/>
				</g>
				<g id="&lt;Group&gt;">
					<g id="&lt;Group&gt;">
						<path id="&lt;Path&gt;" class="s5" d="m323.1 585.3h-17.8v33.2h17.8z"/>
					</g>
					<g id="&lt;Group&gt;">
						<g id="&lt;Group&gt;">
							<path id="&lt;Path&gt;" class="s7" d="m351 572.7h-17.8v45.8h17.8z"/>
						</g>
					</g>
					<g id="&lt;Group&gt;">
						<g id="&lt;Group&gt;">
							<path id="&lt;Path&gt;" class="s9" d="m378.1 546.6h-17.8v71.9h17.8z"/>
						</g>
					</g>
				</g>
				<g id="&lt;Group&gt;">
					<path id="&lt;Path&gt;" class="s10" d="m365.6 665h-6.4v-4.2h6.4z"/>
				</g>
			</g>
			<g id="&lt;Group&gt;">
				<g id="&lt;Group&gt;">
					<path id="&lt;Path&gt;" class="s3" d="m646.2 582.8h-133.3v-148.7h133.3z"/>
				</g>
				<g id="&lt;Group&gt;">
					<g id="&lt;Group&gt;">
						<path id="&lt;Path&gt;" class="s0" d="m616.6 463.6h-92.9v-3.1h92.9z"/>
					</g>
					<g id="&lt;Group&gt;">
						<path id="&lt;Path&gt;" class="s0" d="m570.1 486.2c-16 0-31.9 0-46.4-0.1v-3.1c29 0.1 63.7 0.1 92.9 0v3.1c-14.6 0.1-30.6 0.1-46.5 0.1z"/>
					</g>
					<g id="&lt;Group&gt;">
						<path id="&lt;Path&gt;" class="s0" d="m616.6 474.9h-92.9v-3.1h92.9z"/>
					</g>
					<g id="&lt;Group&gt;">
						<path id="&lt;Path&gt;" class="s0" d="m591.4 497.5h-67.7v-3.1h67.7z"/>
					</g>
					<g id="&lt;Group&gt;">
						<path id="&lt;Path&gt;" class="s0" d="m616.6 573.2h-92.9v-3.1h92.9z"/>
					</g>
					<g id="&lt;Group&gt;">
						<path id="&lt;Path&gt;" class="s0" d="m616.6 550.7c-29.2-0.1-63.9-0.1-92.9 0v-3.1c29-0.1 63.7-0.1 92.9 0z"/>
					</g>
					<g id="&lt;Group&gt;">
						<path id="&lt;Path&gt;" class="s0" d="m616.6 562h-92.9v-3.1h92.9z"/>
					</g>
					<g id="&lt;Group&gt;">
						<path id="&lt;Path&gt;" class="s0" d="m591.4 539.4h-67.7v-3.1h67.7z"/>
					</g>
				</g>
				<g id="&lt;Group&gt;">
					<g id="&lt;Group&gt;">
						<g id="&lt;Group&gt;">
							<path id="&lt;Compound Path&gt;" fill-rule="evenodd" class="s9" d="m648.3 584.9h-137.4v-152.9h137.4zm-135.4-2.1h133.3v-148.7h-133.3z"/>
						</g>
					</g>
				</g>
				<g id="&lt;Group&gt;">
					<g id="&lt;Group&gt;">
						<path id="&lt;Path&gt;" class="s9" d="m647.2 433h-135.3v17.8h135.3z"/>
					</g>
				</g>
				<g id="&lt;Group&gt;">
					<g id="&lt;Group&gt;">
						<g id="&lt;Group&gt;">
							<path id="&lt;Path&gt;" class="s0" d="m608.6 528.4c-0.4 0-0.7-0.1-1-0.4l-10.4-9.2c-0.4-0.3-0.6-0.7-0.6-1.2 0-0.4 0.2-0.8 0.6-1.1l10.4-9.2c0.6-0.6 1.6-0.5 2.2 0.1 0.5 0.6 0.5 1.6-0.2 2.2l-9.1 8 9.1 8.1c0.7 0.5 0.7 1.5 0.2 2.2-0.3 0.3-0.8 0.5-1.2 0.5z"/>
						</g>
					</g>
					<g id="&lt;Group&gt;">
						<g id="&lt;Group&gt;">
							<path id="&lt;Path&gt;" class="s0" d="m624.7 528.4c-0.5 0-0.9-0.2-1.2-0.5-0.6-0.7-0.5-1.7 0.1-2.2l9.1-8.1-9.1-8c-0.6-0.6-0.7-1.6-0.1-2.2 0.6-0.6 1.5-0.7 2.2-0.1l10.4 9.2c0.3 0.3 0.5 0.7 0.5 1.1 0 0.5-0.2 0.9-0.5 1.2l-10.4 9.2c-0.3 0.3-0.7 0.4-1 0.4z"/>
						</g>
					</g>
				</g>
				<g id="&lt;Group&gt;">
					<g id="&lt;Group&gt;">
						<g id="&lt;Group&gt;">
							<path id="&lt;Path&gt;" class="s0" d="m524.7 441.9l3.6-3.6c0.4-0.3 0.4-0.9 0-1.2-0.3-0.4-0.9-0.4-1.2 0l-3.6 3.6-3.6-3.6c-0.4-0.4-0.9-0.4-1.3 0-0.3 0.3-0.3 0.9 0 1.2l3.6 3.6-3.6 3.6c-0.3 0.4-0.3 0.9 0 1.3q0.3 0.2 0.7 0.2 0.3 0 0.6-0.2l3.6-3.6 3.6 3.6q0.3 0.2 0.6 0.2 0.4 0 0.6-0.2c0.4-0.4 0.4-0.9 0-1.3z"/>
						</g>
					</g>
					<g id="&lt;Group&gt;">
						<g id="&lt;Group&gt;">
							<path id="&lt;Compound Path&gt;" fill-rule="evenodd" class="s0" d="m540.2 447c-2.8 0-5.1-2.3-5.1-5.1 0-2.8 2.3-5.1 5.1-5.1 2.8 0 5.1 2.3 5.1 5.1 0 2.8-2.3 5.1-5.1 5.1zm0-8.5c-1.9 0-3.5 1.5-3.5 3.4 0 1.9 1.6 3.5 3.5 3.5 1.9 0 3.5-1.6 3.5-3.5 0-1.9-1.6-3.4-3.5-3.4z"/>
						</g>
					</g>
					<g id="&lt;Group&gt;">
						<g id="&lt;Group&gt;">
							<path id="&lt;Path&gt;" class="s0" d="m559.9 447h-8.3c-0.5 0-0.8-0.4-0.8-0.8 0-0.5 0.3-0.9 0.8-0.9h8.3c0.5 0 0.9 0.4 0.9 0.9 0 0.4-0.4 0.8-0.9 0.8z"/>
						</g>
					</g>
				</g>
			</g>
		</g>
		<path id="&lt;Compound Path&gt;" fill-rule="evenodd" class="s10" d="m479.3 238.6l3.8 12c1.2 3.7-0.9 7.7-4.7 8.9l-12 3.8q-0.6 0.2-1.2 0.3c0.6 7 0 13.9-1.7 20.5q0.6 0.2 1.1 0.5l11.3 5.7c3.4 1.8 4.8 6.1 3 9.6l-5.7 11.3c-0.9 1.7-2.5 2.9-4.2 3.5-1.7 0.5-3.7 0.4-5.4-0.5l-11.2-5.7q-0.6-0.3-1.1-0.7c-4.5 5.4-9.9 10-16.1 13.6q0.2 0.6 0.4 1.2l3.8 12c1.2 3.8-0.8 7.8-4.6 9l-12 3.8c-3.8 1.2-7.8-0.9-9-4.7l-3.8-12q-0.2-0.6-0.2-1.2c-7 0.6-14 0-20.5-1.8q-0.2 0.6-0.5 1.2l-5.8 11.2c-0.9 1.8-2.4 3-4.2 3.6-1.7 0.5-3.6 0.4-5.4-0.5l-11.2-5.8c-1.7-0.8-2.9-2.3-3.5-4.1-0.6-1.8-0.4-3.8 0.4-5.4l5.8-11.3q0.3-0.5 0.7-1c-5.4-4.5-10.1-9.9-13.7-16.2q-0.5 0.3-1.1 0.5l-12.1 3.8c-3.7 1.2-7.7-0.9-8.9-4.6l-3.8-12.1c-1.2-3.7 0.9-7.7 4.6-8.9l12.1-3.8q0.6-0.2 1.2-0.3c-0.6-7 0-13.9 1.7-20.5q-0.6-0.1-1.1-0.4l-11.3-5.8c-3.5-1.8-4.8-6.1-3.1-9.6l5.8-11.2c0.9-1.7 2.4-3 4.2-3.5q0 0 0-0.1c1.8-0.5 3.7-0.4 5.4 0.5l11.2 5.8q0.6 0.3 1.1 0.6c4.5-5.3 9.9-10 16.1-13.6q-0.3-0.5-0.5-1.1l-3.8-12.1c-1.1-3.7 0.9-7.7 4.7-8.9l12-3.8c3.8-1.2 7.8 0.9 9 4.6l3.8 12q0.2 0.7 0.2 1.3c7-0.6 13.9 0 20.5 1.7q0.2-0.6 0.5-1.2l5.8-11.2c1.7-3.5 6.1-4.9 9.5-3.1l11.3 5.8c3.5 1.8 4.9 6.1 3.1 9.6l-5.8 11.2q-0.3 0.6-0.7 1.1c5.4 4.4 10 9.9 13.7 16.1q0.5-0.3 1.1-0.5l12-3.8c3.8-1.2 7.8 0.9 9 4.7zm-42.9 20.1c-5.5-17.6-24.4-27.3-41.9-21.8-17.6 5.6-27.4 24.4-21.9 42 5.6 17.6 24.4 27.4 42 21.8 17.6-5.5 27.4-24.4 21.8-42z"/>
		<g id="&lt;Group&gt;">
			<g id="&lt;Group&gt;">
				<g id="&lt;Group&gt;">
					<path id="&lt;Compound Path&gt;" fill-rule="evenodd" class="s3" d="m460.8 511l7.2 2.9c2.2 0.9 3.3 3.4 2.4 5.7l-2.9 7.1q-0.2 0.4-0.4 0.7c3.5 2.5 6.6 5.5 9 8.9q0.3-0.2 0.7-0.4l7.1-3c2.2-1 4.8 0.1 5.7 2.3l3.1 7.1c0.4 1.1 0.4 2.3 0 3.4-0.4 1-1.3 1.9-2.4 2.3l-7.1 3.1q-0.3 0.1-0.7 0.2c0.8 4.2 0.8 8.6 0.1 12.9q0.4 0.1 0.7 0.3l7.2 2.9c2.2 0.9 3.3 3.5 2.4 5.7l-2.9 7.2c-1 2.2-3.5 3.3-5.7 2.3l-7.2-2.9q-0.4-0.1-0.7-0.3c-2.4 3.5-5.4 6.5-8.8 8.9q0.2 0.4 0.3 0.7l3.1 7.1c0.4 1.2 0.4 2.4 0 3.4-0.4 1-1.2 1.9-2.3 2.4l-7.2 3c-1 0.5-2.2 0.5-3.3 0-1.1-0.4-1.9-1.2-2.4-2.3l-3-7.1q-0.2-0.4-0.3-0.8c-4.2 0.8-8.6 0.9-12.9 0.1q-0.1 0.4-0.2 0.8l-3 7.1c-0.9 2.3-3.4 3.3-5.7 2.4l-7.1-2.9c-2.2-0.9-3.3-3.5-2.4-5.7l2.9-7.2q0.2-0.3 0.4-0.6c-3.6-2.5-6.6-5.5-9-8.9q-0.3 0.2-0.7 0.4l-7.1 3c-2.2 1-4.8-0.1-5.7-2.3l-3.1-7.1c-0.4-1.1-0.4-2.3 0-3.4q0 0 0 0c0.4-1.1 1.3-1.9 2.3-2.3l7.2-3.1q0.3-0.1 0.7-0.2c-0.8-4.2-0.8-8.6-0.1-13q-0.4 0-0.7-0.2l-7.2-2.9c-2.2-0.9-3.3-3.5-2.4-5.7l2.9-7.2c0.9-2.2 3.5-3.3 5.7-2.4l7.2 3q0.3 0.1 0.7 0.3c2.4-3.5 5.4-6.5 8.8-9q-0.2-0.3-0.3-0.6l-3.1-7.2c-0.9-2.2 0.1-4.7 2.3-5.7l7.2-3c2.2-1 4.7 0.1 5.7 2.3l3 7.1q0.2 0.4 0.2 0.7c4.3-0.7 8.6-0.8 13-0.1q0.1-0.3 0.2-0.7l2.9-7.2c1-2.2 3.5-3.3 5.7-2.3zm-7.3 28.1c-10.4-4.3-22.4 0.7-26.7 11.2-4.3 10.5 0.8 22.5 11.2 26.7 10.5 4.3 22.5-0.7 26.8-11.2 4.3-10.5-0.8-22.5-11.3-26.7z"/>
				</g>
			</g>
			<g id="&lt;Group&gt;">
				<g id="&lt;Group&gt;">
					<path id="&lt;Compound Path&gt;" fill-rule="evenodd" class="s11" d="m412 477l3.9 3.8c1.2 1.1 1.2 3.1 0 4.3l-3.8 3.8q-0.2 0.2-0.4 0.4c1.6 2.5 2.8 5.3 3.4 8.1q0.3 0 0.6 0l5.4-0.1c1.7 0 3.1 1.3 3.1 3l0.1 5.4c0 0.9-0.4 1.7-0.9 2.2-0.6 0.6-1.3 0.9-2.2 0.9l-5.4 0.1q-0.3 0-0.5 0c-0.7 2.9-1.8 5.7-3.4 8.4q0.2 0.1 0.4 0.3l3.8 3.8c1.3 1.2 1.3 3.1 0.1 4.3l-3.8 3.9c-1.2 1.2-3.2 1.2-4.4 0l-3.8-3.8q-0.2-0.2-0.4-0.4c-2.5 1.6-5.2 2.8-8.1 3.5q0.1 0.2 0.1 0.5v5.4c0 0.9-0.3 1.6-0.9 2.2-0.5 0.6-1.3 0.9-2.1 0.9l-5.4 0.1c-0.8 0-1.6-0.3-2.2-0.9-0.6-0.6-0.9-1.3-0.9-2.2l-0.1-5.4q0-0.2 0.1-0.5c-3-0.6-5.8-1.8-8.4-3.4q-0.2 0.2-0.4 0.4l-3.8 3.9c-1.2 1.2-3.1 1.2-4.3 0l-3.9-3.8c-1.2-1.2-1.2-3.1 0-4.3l3.8-3.9q0.2-0.2 0.4-0.3c-1.6-2.6-2.8-5.3-3.4-8.2q-0.3 0.1-0.6 0.1h-5.4c-1.7 0.1-3.1-1.3-3.1-3v-5.4c-0.1-0.8 0.3-1.6 0.8-2.2q0 0 0 0c0.6-0.6 1.4-0.9 2.2-0.9l5.4-0.1q0.3 0 0.5 0.1c0.7-2.9 1.8-5.8 3.4-8.4q-0.2-0.2-0.4-0.4l-3.8-3.8c-1.2-1.2-1.3-3.1-0.1-4.3l3.8-3.9c1.2-1.2 3.2-1.2 4.4 0l3.8 3.8q0.2 0.2 0.4 0.4c2.5-1.6 5.3-2.7 8.1-3.4q-0.1-0.3-0.1-0.5v-5.5c0-1.7 1.3-3 3-3.1h5.4c1.7 0 3.1 1.3 3.1 3l0.1 5.4q0 0.3-0.1 0.6c3 0.6 5.8 1.7 8.5 3.3q0.1-0.2 0.3-0.4l3.8-3.8c1.2-1.2 3.1-1.2 4.3 0zm-12.2 16.2c-5.6-5.6-14.8-5.5-20.3 0.1-5.6 5.7-5.5 14.8 0.1 20.4 5.6 5.5 14.8 5.5 20.3-0.2 5.6-5.6 5.5-14.7-0.1-20.3z"/>
				</g>
			</g>
		</g>
		<g id="&lt;Group&gt;">
			<g id="&lt;Group&gt;">
				<g id="&lt;Group&gt;">
					<path id="&lt;Path&gt;" class="s10" d="m103.2 430.7h-24.7v-4.1h24.7z"/>
				</g>
				<g id="&lt;Group&gt;">
					<path id="&lt;Path&gt;" class="s10" d="m176.4 430.7h-63v-4.1h63z"/>
				</g>
				<g id="&lt;Group&gt;">
					<path id="&lt;Path&gt;" class="s10" d="m176.4 475.1h-39v-4.1h39z"/>
				</g>
				<g id="&lt;Group&gt;">
					<path id="&lt;Path&gt;" class="s10" d="m127.2 475.1h-48.7v-4.1h48.7z"/>
				</g>
				<g id="&lt;Group&gt;">
					<path id="&lt;Path&gt;" class="s10" d="m132.8 445.8h-54.3v-4.1h54.3z"/>
				</g>
				<g id="&lt;Group&gt;">
					<path id="&lt;Path&gt;" class="s10" d="m176.4 445.8h-33.4v-4.1h33.4z"/>
				</g>
				<g id="&lt;Group&gt;">
					<path id="&lt;Path&gt;" class="s10" d="m120.7 460.7h-42.2v-4.2h42.2z"/>
				</g>
				<g id="&lt;Group&gt;">
					<path id="&lt;Path&gt;" class="s10" d="m176.4 460.7h-38.3v-4.2h38.3z"/>
				</g>
				<g id="&lt;Group&gt;">
					<path id="&lt;Path&gt;" class="s10" d="m133.4 460.7h-7.3v-4.2h7.3z"/>
				</g>
			</g>
			<g id="&lt;Group&gt;">
				<g id="&lt;Group&gt;">
					<path id="&lt;Path&gt;" class="s10" d="m754.5 817.8h-24.7v-4.1h24.7z"/>
				</g>
				<g id="&lt;Group&gt;">
					<path id="&lt;Path&gt;" class="s10" d="m827.7 817.8h-63v-4.1h63z"/>
				</g>
				<g id="&lt;Group&gt;">
					<path id="&lt;Path&gt;" class="s10" d="m827.7 862.2h-39v-4.1h39z"/>
				</g>
				<g id="&lt;Group&gt;">
					<path id="&lt;Path&gt;" class="s10" d="m778.5 862.2h-48.7v-4.1h48.7z"/>
				</g>
				<g id="&lt;Group&gt;">
					<path id="&lt;Path&gt;" class="s10" d="m784.1 832.9h-54.3v-4.1h54.3z"/>
				</g>
				<g id="&lt;Group&gt;">
					<path id="&lt;Path&gt;" class="s10" d="m827.7 832.9h-33.4v-4.1h33.4z"/>
				</g>
				<g id="&lt;Group&gt;">
					<path id="&lt;Path&gt;" class="s10" d="m771.9 847.8h-42.1v-4.2h42.1z"/>
				</g>
				<g id="&lt;Group&gt;">
					<path id="&lt;Path&gt;" class="s10" d="m827.7 847.8h-38.3v-4.2h38.3z"/>
				</g>
				<g id="&lt;Group&gt;">
					<path id="&lt;Path&gt;" class="s10" d="m784.6 847.8h-7.3v-4.2h7.3z"/>
				</g>
			</g>
		</g>
		<path id="&lt;Compound Path&gt;" fill-rule="evenodd" class="s10" d="m818.5 307.9l2.1 9.7c0.7 3-1.3 6-4.3 6.6l-9.7 2.1q-0.5 0.1-1 0.1c0 5.5-1 10.9-2.9 15.9q0.5 0.2 0.9 0.5l8.4 5.3c2.6 1.7 3.3 5.2 1.7 7.8l-5.4 8.3c-0.8 1.3-2.1 2.2-3.5 2.5-1.4 0.3-2.9 0.1-4.2-0.8l-8.4-5.3q-0.4-0.3-0.8-0.6c-3.9 3.8-8.5 7.1-13.6 9.4q0.2 0.5 0.3 1l2.1 9.7c0.6 3-1.3 6-4.3 6.6l-9.7 2.1c-3.1 0.6-6-1.3-6.7-4.3l-2.1-9.7q-0.1-0.5-0.1-1c-5.5 0-10.9-1-15.9-2.9q-0.2 0.5-0.4 0.9l-5.4 8.4c-0.8 1.3-2.1 2.1-3.5 2.4-1.4 0.3-2.9 0.1-4.2-0.7l-8.4-5.4c-1.3-0.8-2.1-2.1-2.4-3.5-0.4-1.5-0.1-3 0.7-4.2l5.4-8.4q0.2-0.4 0.6-0.8c-3.9-3.9-7.1-8.5-9.5-13.6q-0.4 0.2-0.9 0.3l-9.7 2.1c-3.1 0.6-6-1.3-6.7-4.3l-2.1-9.8c-0.6-3 1.3-6 4.3-6.6l9.8-2.1q0.4-0.1 0.9-0.1c0.1-5.5 1.1-10.9 2.9-15.9q-0.4-0.2-0.9-0.5l-8.3-5.3c-2.6-1.7-3.4-5.1-1.7-7.7l5.3-8.4c0.8-1.3 2.1-2.1 3.6-2.4q0-0.1 0-0.1c1.4-0.3 2.9 0 4.2 0.8l8.3 5.4q0.5 0.2 0.8 0.6c3.9-3.9 8.5-7.1 13.7-9.5q-0.2-0.5-0.3-0.9l-2.1-9.7c-0.7-3.1 1.3-6 4.3-6.7l9.7-2.1c3-0.6 6 1.3 6.6 4.3l2.1 9.7q0.1 0.5 0.1 1c5.6 0.1 10.9 1.1 15.9 2.9q0.2-0.4 0.5-0.9l5.3-8.3c1.7-2.6 5.2-3.4 7.8-1.7l8.3 5.3c2.6 1.7 3.4 5.2 1.7 7.8l-5.3 8.3q-0.3 0.4-0.6 0.8c3.8 3.9 7.1 8.5 9.4 13.6q0.5-0.1 1-0.2l9.7-2.1c3-0.7 6 1.3 6.6 4.3zm-35 12.6c-3-14.2-17.1-23.3-31.2-20.3-14.2 3.1-23.3 17.1-20.2 31.3 3 14.2 17 23.2 31.2 20.2 14.2-3 23.2-17.1 20.2-31.2z"/>
	</g>
	<g id="TEXTS">
		<text id="&lt;/&gt;
" style="transform: matrix(2,0,0,2,570.461,321.13)" >
			<tspan x="0" y="0" class="t12">&lt;/&gt;
</tspan>
		</text>
		<text id="html
" style="transform: matrix(2,0,0,2,154.264,836.478)" >
			<tspan x="0" y="0" class="t13">HTML
</tspan>
		</text>
		<text id="js
" style="transform: matrix(2,0,0,2,238.83,531.873)" >
			<tspan x="0" y="0" class="t14">JS
</tspan>
		</text>
		<text id="css" style="transform: matrix(2,0,0,2,596.469,795.641)" >
			<tspan x="0" y="0" class="t15">C</tspan><tspan  y="0" class="t15">S</tspan><tspan  y="0" class="t15">S</tspan><tspan  y="0" class="t15">
</tspan>
		</text>
		<text id="React JS" style="transform: matrix(2,0,0,2,803.109,573.492)" >
			<tspan x="0" y="0" class="t13">R</tspan><tspan  y="0" class="t13">E</tspan><tspan  y="0" class="t13">A</tspan><tspan  y="0" class="t13">C</tspan><tspan  y="0" class="t13">T
</tspan>
		</text>
	</g>
</svg>