<svg version="1.2" xmlns="http://www.w3.org/2000/svg" viewBox="0 0 1500 1000" width="1500" height="1000">
	<title>20824298_6342461-ai</title>
	<style>
		.s0 { fill: #1fc3c4 } 
		.s1 { opacity: .8;fill: #ffffff } 
		.s2 { opacity: .2;fill: #000000 } 
		.s3 { opacity: .1;fill: #000000 } 
		.s4 { fill: #ffffff;stroke: #263238;stroke-linecap: round;stroke-linejoin: round;stroke-width: 2 } 
		.s5 { fill: #263238 } 
		.s6 { fill: #1fc3c4;stroke: #263238;stroke-linecap: round;stroke-linejoin: round;stroke-width: 2 } 
		.s7 { fill: #737373;stroke: #263238;stroke-linecap: round;stroke-linejoin: round;stroke-width: 2 } 
		.s8 { fill: #263238;stroke: #263238;stroke-linecap: round;stroke-linejoin: round;stroke-width: 2 } 
		.s9 { fill: none;stroke: #263238;stroke-linecap: round;stroke-linejoin: round;stroke-width: 2 } 
		.s10 { fill: none;stroke: #263238;stroke-linecap: round;stroke-linejoin: round;stroke-width: 4 } 
		.s11 { fill: #7d7d7d;stroke: #263238;stroke-linecap: round;stroke-linejoin: round;stroke-width: 2 } 
		.s12 { fill: #636363;stroke: #263238;stroke-linecap: round;stroke-linejoin: round;stroke-width: 2 } 
	</style>
	<g id="Background Simple">
		<g id="&lt;Group&gt;">
			<path id="&lt;Path&gt;" class="s0" d="m1452.7 407.5c-33.8-153.6-151.4-274.8-311.6-315.4-42.2-10.6-87-16-131.5-11.4-182.2 18.7-399.5 141.3-512.3 167-112.8 25.7-245-77.1-394.9 80.8-150 157.9-115.3 523.2 184.5 594.8 299.8 71.6 466.7-104.7 599.9-66.1 133.2 38.5 371.6 22 512.4-91.8 83.5-67.5 82.8-224.7 53.5-357.9z"/>
			<path id="&lt;Path&gt;" class="s1" d="m1452.7 407.5c-33.8-153.6-151.4-274.8-311.6-315.4-42.2-10.6-87-16-131.5-11.4-182.2 18.7-399.5 141.3-512.3 167-112.8 25.7-245-77.1-394.9 80.8-150 157.9-115.3 523.2 184.5 594.8 299.8 71.6 466.7-104.7 599.9-66.1 133.2 38.5 371.6 22 512.4-91.8 83.5-67.5 82.8-224.7 53.5-357.9z"/>
		</g>
	</g>
	<g id="Bricks">
		<g id="&lt;Group&gt;">
			<path id="&lt;Path&gt;" class="s2" d="m749.5 468h61.8v-25h-61.8z"/>
			<path id="&lt;Path&gt;" class="s2" d="m726 379.1h61.7v-25h-61.7z"/>
			<path id="&lt;Path&gt;" class="s2" d="m502.5 467.3h61.8v-25h-61.8z"/>
			<path id="&lt;Path&gt;" class="s2" d="m592.2 293.4h61.8v-25h-61.8z"/>
			<path id="&lt;Path&gt;" class="s2" d="m659.8 293.4h61.8v-25h-61.8z"/>
			<path id="&lt;Path&gt;" class="s2" d="m396.7 652.1h61.7v-25h-61.7z"/>
			<path id="&lt;Path&gt;" class="s2" d="m364.3 683h61.8v-25h-61.8z"/>
			<path id="&lt;Path&gt;" class="s3" d="m692.2 413.6h61.7v-25h-61.7z"/>
			<path id="&lt;Path&gt;" class="s3" d="m784.8 554h61.8v-25h-61.8z"/>
			<path id="&lt;Path&gt;" class="s3" d="m423.1 592.3h61.8v-25h-61.8z"/>
			<path id="&lt;Path&gt;" class="s3" d="m493.7 592.3h61.7v-25h-61.7z"/>
			<path id="&lt;Path&gt;" class="s3" d="m499.6 557h61.7v-25h-61.7z"/>
			<path id="&lt;Path&gt;" class="s3" d="m762.7 413.6h61.8v-25h-61.8z"/>
			<path id="&lt;Path&gt;" class="s2" d="m731.7 214.6h61.8v-25h-61.8z"/>
			<path id="&lt;Path&gt;" class="s2" d="m708.2 125.6h61.7v-25h-61.7z"/>
			<path id="&lt;Path&gt;" class="s3" d="m674.4 160.2h61.7v-25h-61.7z"/>
			<path id="&lt;Path&gt;" class="s3" d="m744.9 160.2h61.8v-25h-61.8z"/>
			<path id="&lt;Path&gt;" class="s2" d="m579 680.5h61.7v-25h-61.7z"/>
			<path id="&lt;Path&gt;" class="s3" d="m545.2 715h61.7v-25h-61.7z"/>
			<path id="&lt;Path&gt;" class="s3" d="m615.7 715h61.8v-25h-61.8z"/>
			<path id="&lt;Path&gt;" class="s2" d="m279.6 369.4h61.8v-25h-61.8z"/>
			<path id="&lt;Path&gt;" class="s3" d="m245.8 403.9h61.7v-25h-61.7z"/>
			<path id="&lt;Path&gt;" class="s3" d="m316.4 403.9h61.7v-25h-61.7z"/>
			<path id="&lt;Path&gt;" class="s2" d="m255.5 555.5h61.8v-25h-61.8z"/>
			<path id="&lt;Path&gt;" class="s3" d="m529 436h61.7v-25h-61.7z"/>
			<path id="&lt;Path&gt;" class="s3" d="m436.4 681.5h61.7v-25h-61.7z"/>
			<path id="&lt;Path&gt;" class="s3" d="m627.5 262.5h61.7v-25h-61.7z"/>
			<path id="&lt;Path&gt;" class="s2" d="m220.2 472.8h61.8v-25h-61.8z"/>
			<path id="&lt;Path&gt;" class="s3" d="m255.5 441.9h61.8v-25h-61.8z"/>
			<path id="&lt;Path&gt;" class="s3" d="m412.8 291.6h61.8v-25h-61.8z"/>
			<path id="&lt;Path&gt;" class="s2" d="m627.5 468h61.7v-25h-61.7z"/>
			<path id="&lt;Path&gt;" class="s2" d="m1022 468h-61.7v-25h61.7z"/>
			<path id="&lt;Path&gt;" class="s2" d="m1045.6 379.1h-61.8v-25h61.8z"/>
			<path id="&lt;Path&gt;" class="s2" d="m1269 467.3h-61.7v-25h61.7z"/>
			<path id="&lt;Path&gt;" class="s2" d="m1179.4 293.4h-61.8v-25h61.8z"/>
			<path id="&lt;Path&gt;" class="s2" d="m1111.7 293.4h-61.7v-25h61.7z"/>
			<path id="&lt;Path&gt;" class="s3" d="m1079.4 413.6h-61.8v-25h61.8z"/>
			<path id="&lt;Path&gt;" class="s3" d="m986.8 554h-61.8v-25h61.8z"/>
			<path id="&lt;Path&gt;" class="s3" d="m1348.4 592.3h-61.7v-25h61.7z"/>
			<path id="&lt;Path&gt;" class="s3" d="m1277.9 592.3h-61.8v-25h61.8z"/>
			<path id="&lt;Path&gt;" class="s3" d="m1272 557h-61.8v-25h61.8z"/>
			<path id="&lt;Path&gt;" class="s3" d="m1008.8 413.6h-61.7v-25h61.7z"/>
			<path id="&lt;Path&gt;" class="s2" d="m527.2 779.9h-61.7v-25h61.7z"/>
			<path id="&lt;Path&gt;" class="s3" d="m561.1 814.5h-61.8v-25h61.8z"/>
			<path id="&lt;Path&gt;" class="s3" d="m490.5 814.5h-61.8v-25h61.8z"/>
			<path id="&lt;Path&gt;" class="s2" d="m228.3 779.9h-61.7v-25h61.7z"/>
			<path id="&lt;Path&gt;" class="s3" d="m262.1 814.5h-61.7v-25h61.7z"/>
			<path id="&lt;Path&gt;" class="s3" d="m191.6 814.5h-61.8v-25h61.8z"/>
			<path id="&lt;Path&gt;" class="s2" d="m1192.6 680.5h-61.8v-25h61.8z"/>
			<path id="&lt;Path&gt;" class="s3" d="m1226.4 715h-61.7v-25h61.7z"/>
			<path id="&lt;Path&gt;" class="s3" d="m1155.8 715h-61.7v-25h61.7z"/>
			<path id="&lt;Path&gt;" class="s3" d="m1242.6 436h-61.8v-25h61.8z"/>
			<path id="&lt;Path&gt;" class="s3" d="m1335.2 681.5h-61.7v-25h61.7z"/>
			<path id="&lt;Path&gt;" class="s3" d="m1034 716.7h-61.8v-25h61.8z"/>
			<path id="&lt;Path&gt;" class="s3" d="m963.4 716.7h-61.7v-25h61.7z"/>
			<path id="&lt;Path&gt;" class="s2" d="m878.1 804.9h-61.7v-25h61.7z"/>
			<path id="&lt;Path&gt;" class="s3" d="m1405.7 839.4h-61.8v-25h61.8z"/>
			<path id="&lt;Path&gt;" class="s3" d="m1405.7 775.5h-61.8v-25h61.8z"/>
			<path id="&lt;Path&gt;" class="s3" d="m1437.3 806.6h-61.7v-25h61.7z"/>
			<path id="&lt;Path&gt;" class="s3" d="m1366.5 806.6h-61.8v-25h61.8z"/>
			<path id="&lt;Path&gt;" class="s3" d="m1020.8 805.9h-61.8v-25h61.8z"/>
			<path id="&lt;Path&gt;" class="s2" d="m1039.9 888.8h61.8v-25h-61.8z"/>
			<path id="&lt;Path&gt;" class="s3" d="m1006.1 923.4h61.7v-25h-61.7z"/>
			<path id="&lt;Path&gt;" class="s3" d="m1076.7 923.4h61.7v-25h-61.7z"/>
			<path id="&lt;Path&gt;" class="s2" d="m1245.5 866.8h61.8v-25h-61.8z"/>
			<path id="&lt;Path&gt;" class="s3" d="m1211.7 923.4h61.8v-25h-61.8z"/>
			<path id="&lt;Path&gt;" class="s3" d="m1282.3 923.4h61.7v-25h-61.7z"/>
			<path id="&lt;Path&gt;" class="s3" d="m138.6 948.3h61.7v-25h-61.7z"/>
			<path id="&lt;Path&gt;" class="s3" d="m341.2 915.5h61.7v-25h-61.7z"/>
			<path id="&lt;Path&gt;" class="s3" d="m227.1 884.4h61.8v-25h-61.8z"/>
			<path id="&lt;Path&gt;" class="s3" d="m195.5 915.5h61.7v-25h-61.7z"/>
			<path id="&lt;Path&gt;" class="s3" d="m266.3 915.5h61.8v-25h-61.8z"/>
			<path id="&lt;Path&gt;" class="s3" d="m1144.1 262.5h-61.8v-25h61.8z"/>
			<path id="&lt;Path&gt;" class="s3" d="m1111.2 157.1h-61.7v-25h61.7z"/>
			<path id="&lt;Path&gt;" class="s3" d="m1358.7 291.6h-61.7v-25h61.7z"/>
			<path id="&lt;Path&gt;" class="s2" d="m1144.1 468h-61.8v-25h61.8z"/>
			<path id="&lt;Path&gt;" class="s2" d="m392.4 121.9h61.7v-25h-61.7z"/>
			<path id="&lt;Path&gt;" class="s3" d="m142.9 299h61.7v-25h-61.7z"/>
			<path id="&lt;Path&gt;" class="s3" d="m219.9 320.6h61.7v-25h-61.7z"/>
			<path id="&lt;Path&gt;" class="s3" d="m69 345.2h61.7v-25h-61.7z"/>
			<path id="&lt;Path&gt;" class="s3" d="m180.5 346.3h61.8v-25h-61.8z"/>
			<path id="&lt;Path&gt;" class="s2" d="m354.6 156.9h61.7v-25h-61.7z"/>
			<path id="&lt;Path&gt;" class="s2" d="m1016.1 121.9h61.8v-25h-61.8z"/>
			<path id="&lt;Path&gt;" class="s2" d="m978.3 156.9h61.8v-25h-61.8z"/>
		</g>
	</g>
	<g id="Pipes">
		<g id="&lt;Group&gt;">
			<g id="&lt;Group&gt;">
				<path id="&lt;Path&gt;" class="s4" d="m182.4 426.8h-159.3v-26h146.3v-376.4h26v389.4c0 7.1-5.8 13-13 13z"/>
			</g>
			<g id="&lt;Group&gt;">
				<path id="&lt;Path&gt;" class="s4" d="m1388.5 15.5v148.8h-1193.6v26h1151.8v628.4h-307.2c-7.2 0-13 5.9-13 13v95.8h26v-82.8h294.2v88h26v-742.4h28.8c7.2 0 13-5.8 13-13v-161.8z"/>
				<path id="&lt;Path&gt;" class="s4" d="m1414.3 107.4h-25.4v-11.8h25.4z"/>
				<path id="&lt;Path&gt;" class="s4" d="m1132.4 844.6v-25.4h11.8v25.4z"/>
				<path id="&lt;Path&gt;" class="s4" d="m1158.1 844.6v-25.4h11.8v25.4z"/>
			</g>
			<g id="&lt;Group&gt;">
				<g id="&lt;Group&gt;">
					<path id="&lt;Path&gt;" class="s4" d="m59.9 866.1v26h419.3v-26z"/>
					<g id="&lt;Group&gt;">
						<g id="&lt;Group&gt;">
							<path id="&lt;Path&gt;" class="s4" d="m59.9 830.3v26h419.3v-26z"/>
						</g>
						<path id="&lt;Path&gt;" class="s4" d="m256.7 856.1h-17.9v-25.3h17.9z"/>
						<path id="&lt;Path&gt;" class="s4" d="m294 856.1h-17.9v-25.3h17.9z"/>
					</g>
				</g>
				<path id="&lt;Path&gt;" class="s4" d="m256.7 891.9h-17.9v-25.3h17.9z"/>
				<path id="&lt;Path&gt;" class="s4" d="m294 891.9h-17.9v-25.3h17.9z"/>
			</g>
		</g>
	</g>
	<g id="Gears">
		<path id="&lt;Compound Path&gt;" fill-rule="evenodd" class="s4" d="m515.3 345q-1.5 8.6-4.4 16.7l18 10.4-17.1 29.7-18.1-10.5c-3.7 4.4-7.8 8.5-12.2 12.2l10.4 18.1-29.7 17.2-10.4-18.1c-5.3 2-10.9 3.4-16.7 4.5v20.8h-34.2v-20.8q-8.7-1.5-16.7-4.5l-10.5 18.1-29.6-17.2 10.4-18c-4.4-3.7-8.5-7.8-12.2-12.2l-18.1 10.4-17.1-29.7 18-10.4c-1.9-5.4-3.4-10.9-4.4-16.7h-20.9v-34.3h20.9q1.5-8.6 4.4-16.6l-18.1-10.5 17.2-29.7 18.1 10.5c3.7-4.4 7.7-8.5 12.2-12.2l-10.5-18.1 29.7-17.2 10.4 18.1c5.4-2 11-3.4 16.7-4.4v-20.9h34.3v20.8q8.6 1.5 16.7 4.5l10.4-18.1 29.7 17.2-10.4 18c4.4 3.7 8.4 7.8 12.2 12.2l18-10.4 17.2 29.7-18.1 10.4q3 8.1 4.5 16.7h20.9v34.3zm-33.5-17.1c0-35.3-28.6-63.9-63.9-63.9-35.2 0-63.8 28.6-63.8 63.9 0 35.2 28.6 63.8 63.8 63.8 35.3 0 63.9-28.6 63.9-63.8z"/>
		<path id="&lt;Compound Path&gt;" fill-rule="evenodd" class="s4" d="m359.4 659.8q-1.5 8.7-4.4 16.7l18 10.4-17.1 29.7-18.1-10.4c-3.7 4.4-7.8 8.5-12.2 12.2l10.4 18.1-29.7 17.1-10.4-18c-5.3 1.9-10.9 3.4-16.7 4.4v20.9h-34.2v-20.9q-8.7-1.5-16.7-4.4l-10.5 18-29.6-17.1 10.4-18.1c-4.4-3.7-8.5-7.8-12.2-12.2l-18.1 10.5-17.1-29.7 18-10.4c-1.9-5.4-3.4-11-4.4-16.7h-20.9v-34.3h20.9q1.5-8.6 4.4-16.7l-18.1-10.4 17.2-29.7 18.1 10.4c3.7-4.4 7.7-8.5 12.2-12.2l-10.5-18.1 29.7-17.1 10.4 18c5.4-1.9 11-3.4 16.7-4.4v-20.9h34.3v20.9q8.6 1.5 16.7 4.4l10.4-18 29.7 17.1-10.4 18.1c4.4 3.7 8.4 7.8 12.2 12.2l18-10.5 17.2 29.7-18.1 10.5c2 5.3 3.5 10.9 4.5 16.6h20.9v34.3zm-33.5-17.1c0-35.3-28.6-63.9-63.9-63.9-35.2 0-63.8 28.6-63.8 63.9 0 35.3 28.6 63.9 63.8 63.9 35.3 0 63.9-28.6 63.9-63.9z"/>
		<path id="&lt;Compound Path&gt;" fill-rule="evenodd" class="s4" d="m1236.4 654.9q-1 5.8-3 11.3l12.2 7-11.6 20.1-12.2-7.1q-3.7 4.5-8.2 8.3l7 12.2-20 11.5-7-12.1q-5.5 1.9-11.3 3v14h-23.2v-14q-5.8-1.1-11.2-3l-7.1 12.2-20-11.6 7-12.2q-4.4-3.8-8.2-8.3l-12.2 7.1-11.6-20.1 12.2-7q-2-5.4-3-11.2h-14.1v-23.2h14.1q1-5.8 3-11.3l-12.2-7 11.6-20 12.2 7q3.7-4.5 8.2-8.2l-7-12.2 20-11.6 7.1 12.2q5.4-2 11.2-3v-14.1h23.2v14.1q5.8 1 11.2 3l7.1-12.2 20 11.5-7 12.3q4.4 3.7 8.2 8.2l12.2-7.1 11.6 20.1-12.2 7q2 5.4 3 11.3h14.1v23.1zm-22.6-11.5c0-23.9-19.3-43.2-43.1-43.2-23.8 0-43.1 19.3-43.1 43.2 0 23.8 19.3 43.1 43.1 43.1 23.8 0 43.1-19.3 43.1-43.1z"/>
		<path id="&lt;Compound Path&gt;" fill-rule="evenodd" class="s4" d="m1123.2 327q-1 5.9-2.9 11.3l12.1 7-11.5 20.1-12.2-7.1q-3.8 4.5-8.3 8.3l7.1 12.2-20.1 11.5-7-12.1q-5.4 1.9-11.3 3v14.1h-23.1v-14.1q-5.8-1.1-11.3-3l-7 12.2-20.1-11.6 7.1-12.2q-4.5-3.8-8.2-8.2l-12.2 7-11.6-20 12.2-7.1q-2-5.4-3-11.2h-14.1v-23.2h14.1q1-5.8 2.9-11.2l-12.1-7.1 11.5-20 12.2 7q3.8-4.5 8.3-8.2l-7.1-12.2 20.1-11.6 7 12.2q5.4-2 11.3-3v-14.1h23.1v14.1q5.8 1 11.3 3l7-12.2 20.1 11.6-7.1 12.2q4.5 3.7 8.2 8.2l12.3-7.1 11.5 20.1-12.2 7q2 5.5 3 11.3h14.1v23.1zm-22.5-11.5c0-23.9-19.3-43.2-43.2-43.2-23.8 0-43.1 19.3-43.1 43.2 0 23.8 19.3 43.1 43.1 43.1 23.9 0 43.2-19.3 43.2-43.1z"/>
	</g>
	<g id="Text">
		<g id="&lt;Group&gt;">
			<g id="&lt;Group&gt;">
				<path id="&lt;Compound Path&gt;" fill-rule="evenodd" class="s5" d="m299.1 780.8v-160.3h-208.7v-102.7l179-424.2h152.7v426.8h66.2v100.1h-66.2v160.3zm-105.2-260.4h105.2v-291.9z"/>
				<path id="&lt;Compound Path&gt;" fill-rule="evenodd" class="s5" d="m422.1 781.8h-123c-0.6 0-1-0.4-1-1v-159.3h-207.7c-0.6 0-1-0.5-1-1v-102.7q0-0.2 0-0.4l179.1-424.2c0.1-0.4 0.5-0.6 0.9-0.6h152.7c0.6 0 1 0.4 1 1v425.8h65.2c0.5 0 1 0.4 1 1v100.1c0 0.5-0.5 1-1 1h-65.2v159.3c0 0.6-0.4 1-1 1zm-122-2h121v-159.3c0-0.6 0.5-1 1-1h65.2v-98.1h-65.2c-0.5 0-1-0.5-1-1v-425.8h-151l-178.7 423.4v101.5h207.7c0.5 0 1 0.4 1 1zm-1-258.5h-105.2c-0.3 0-0.7-0.2-0.8-0.4-0.2-0.3-0.3-0.6-0.2-0.9l105.2-291.9c0.2-0.5 0.7-0.7 1.2-0.7 0.4 0.1 0.8 0.5 0.8 1v291.9c0 0.5-0.5 1-1 1zm-103.8-2h102.8v-285.2z"/>
			</g>
			<g id="&lt;Group&gt;">
				<path id="&lt;Compound Path&gt;" fill-rule="evenodd" class="s5" d="m734.3 792.7q-61.9 0-102.6-25.4-40.7-25.5-61.1-70-20.4-44.6-20.4-103.1v-308q0-60.3 19.5-105.7 19.6-45.3 60.3-70.8 40.7-25.5 104.3-25.5 62.8 0 103.1 25.5 40.3 25.5 59.9 70.8 19.5 45.4 19.5 105.7v308q0 58.5-20.4 103.1-20.4 44.5-61.1 70-40.7 25.4-101 25.4zm0-115.4q23 0 33.1-14.4 10.2-14.4 13.6-34.4 3.4-19.9 3.4-36.9v-302.9q0-18.6-3-39-2.9-20.4-13.1-35.2-10.2-14.9-34-14.9-23.7 0-34.3 14.9-10.6 14.8-13.6 35.2-3 20.4-3 39v302.9q0 17 3.4 36.9 3.4 20 14.5 34.4 11 14.4 33 14.4z"/>
				<path id="&lt;Compound Path&gt;" fill-rule="evenodd" class="s5" d="m734.3 793.7c-41.2 0-76-8.6-103.1-25.6-27.2-17-47.9-40.7-61.5-70.4-13.6-29.7-20.5-64.5-20.5-103.5v-308c0-40.1 6.6-75.8 19.6-106.1 13.1-30.3 33.5-54.3 60.7-71.3 27.1-16.9 62.4-25.6 104.8-25.6 41.9 0 76.8 8.7 103.7 25.7 26.9 16.9 47.1 40.9 60.2 71.2 13 30.3 19.6 66 19.6 106.1v308c0 39-6.9 73.8-20.5 103.5-13.6 29.7-34.3 53.4-61.5 70.4-27.1 17-61.3 25.6-101.5 25.6zm0-708.5c-42 0-76.9 8.6-103.8 25.3-26.8 16.8-47 40.5-59.8 70.4-12.9 30-19.5 65.4-19.5 105.3v308c0 38.7 6.8 73.2 20.3 102.6 13.4 29.4 33.9 52.8 60.7 69.6 26.9 16.8 61.2 25.3 102.1 25.3 39.8 0 73.6-8.5 100.5-25.3 26.8-16.8 47.3-40.2 60.7-69.6 13.4-29.4 20.3-63.9 20.3-102.6v-308c0-39.8-6.6-75.3-19.5-105.3-12.8-29.9-32.8-53.6-59.4-70.4-26.6-16.7-61.1-25.3-102.6-25.3zm0 593.1c-14.9 0-26.3-5-33.8-14.8-7.5-9.7-12.4-21.4-14.7-34.8-2.2-13.3-3.4-25.7-3.4-37.1v-302.9c0-12.5 1-25.7 3-39.2 2-13.6 6.6-25.6 13.8-35.6 7.2-10.1 19-15.3 35.1-15.3 16.2 0 27.8 5.2 34.8 15.3 6.8 10 11.3 22 13.3 35.6 2 13.6 3 26.8 3 39.2v302.9c0 11.3-1.1 23.8-3.4 37.1-2.3 13.4-6.9 25.1-13.7 34.8-7 9.8-18.4 14.8-34 14.8zm0-477.7c-15.4 0-26.7 4.9-33.5 14.5-7 9.7-11.5 21.4-13.4 34.7-2 13.4-3 26.5-3 38.9v302.9c0 11.3 1.2 23.6 3.4 36.8 2.2 13 7 24.4 14.2 33.9 7.2 9.3 18 14 32.3 14 14.9 0 25.8-4.7 32.3-14 6.7-9.4 11.2-20.8 13.4-33.9 2.3-13.3 3.4-25.6 3.4-36.8v-302.9c0-12.3-1-25.4-3-38.9-1.9-13.3-6.3-25-12.9-34.8-6.6-9.5-17.7-14.4-33.2-14.4z"/>
			</g>
			<g id="&lt;Group&gt;">
				<path id="&lt;Compound Path&gt;" fill-rule="evenodd" class="s5" d="m1196.8 780.8v-160.3h-208.8v-102.7l179.1-424.2h152.7v426.8h66.2v100.1h-66.2v160.3zm-105.2-260.4h105.2v-291.9z"/>
				<path id="&lt;Compound Path&gt;" fill-rule="evenodd" class="s5" d="m1319.8 781.8h-123c-0.6 0-1-0.4-1-1v-159.3h-207.8c-0.5 0-1-0.5-1-1v-102.7q0-0.2 0.1-0.4l179-424.2c0.2-0.4 0.6-0.6 1-0.6h152.7c0.5 0 1 0.4 1 1v425.8h65.2c0.5 0 1 0.4 1 1v100.1c0 0.5-0.5 1-1 1h-65.2v159.3c0 0.6-0.5 1-1 1zm-122-2h121v-159.3c0-0.6 0.4-1 1-1h65.2v-98.1h-65.2c-0.6 0-1-0.5-1-1v-425.8h-151.1l-178.7 423.4v101.5h207.8c0.5 0 1 0.4 1 1zm-1-258.5h-105.3c-0.3 0-0.6-0.2-0.8-0.4-0.2-0.3-0.2-0.6-0.1-0.9l105.2-291.9c0.2-0.5 0.6-0.7 1.1-0.7 0.5 0.1 0.9 0.5 0.9 1v291.9c0 0.5-0.5 1-1 1zm-103.8-2h102.8v-285.2z"/>
			</g>
		</g>
		<g id="&lt;Group&gt;">
			<path id="&lt;Compound Path&gt;" class="s5" d="m583.5 934.6v-103.6h37.5v7.5h-27.7v38.9h22.6v7.2h-22.6v42.7h27.9v7.3z"/>
			<path id="&lt;Compound Path&gt;" fill-rule="evenodd" class="s5" d="m634.5 934.6v-103.6h23.4q9.8 0 15.3 3.1 5.6 3.1 8 9.1 2.5 5.9 2.5 14.1 0 5.8-1.3 10.9-1.3 5.1-4.4 8.7-3 3.6-8.7 4.7l15.9 53h-9.5l-15.2-50.9h-16.2v50.9zm9.7-58.1h13.2q6.5 0 10.1-2.2 3.5-2.1 5.1-6.4 1.5-4.2 1.5-10.6 0-9.6-3.3-14.3-3.3-4.7-13.2-4.7h-13.4z"/>
			<path id="&lt;Compound Path&gt;" fill-rule="evenodd" class="s5" d="m700 934.6v-103.6h23.4q9.8 0 15.3 3.1 5.6 3.1 8 9.1 2.5 5.9 2.5 14.1 0 5.8-1.3 10.9-1.3 5.1-4.4 8.7-3 3.6-8.7 4.7l15.9 53h-9.5l-15.2-50.9h-16.2v50.9zm9.7-58.1h13.2q6.5 0 10.1-2.2 3.5-2.1 5.1-6.4 1.5-4.2 1.5-10.6 0-9.6-3.3-14.3-3.3-4.7-13.2-4.7h-13.4z"/>
			<path id="&lt;Compound Path&gt;" fill-rule="evenodd" class="s5" d="m790 935.9q-10.3 0-16.1-4.1-5.8-4-8.2-11.2-2.3-7.2-2.3-16.6v-43q0-9.4 2.4-16.4 2.5-7 8.4-10.8 5.8-3.9 15.8-3.9 10.1 0 15.9 3.9 5.8 3.8 8.2 10.8 2.5 7 2.5 16.4v43.1q0 9.4-2.4 16.5-2.4 7.2-8.1 11.2-5.8 4.1-16.1 4.1zm0-7.8q6.9 0 10.5-2.8 3.5-2.7 4.9-7.7 1.3-4.9 1.3-11.4v-47q0-6.5-1.3-11.3-1.4-4.9-4.9-7.5-3.6-2.7-10.5-2.7-6.8 0-10.5 2.7-3.6 2.6-5 7.5-1.3 4.8-1.3 11.3v47q0 6.5 1.3 11.4 1.4 5 5 7.7 3.7 2.8 10.5 2.8z"/>
			<path id="&lt;Compound Path&gt;" fill-rule="evenodd" class="s5" d="m832.7 934.6v-103.6h23.4q9.7 0 15.3 3.1 5.6 3.1 8 9.1 2.4 5.9 2.4 14.1 0 5.8-1.3 10.9-1.2 5.1-4.3 8.7-3.1 3.6-8.7 4.7l15.8 53h-9.4l-15.2-50.9h-16.3v50.9zm9.7-58.1h13.2q6.5 0 10.1-2.2 3.6-2.1 5.1-6.4 1.6-4.2 1.6-10.6 0-9.6-3.4-14.3-3.3-4.7-13.1-4.7h-13.5z"/>
		</g>
	</g>
	<g id="Character">
		<g id="&lt;Group&gt;">
			<path id="&lt;Path&gt;" class="s6" d="m550.3 437.6l7.4 107-46.4-21.7-11.7 47.1c0 0 99.6 55.6 109.5 53.8 9.9-1.9-14.9-218.4-14.9-218.4z"/>
			<path id="&lt;Path&gt;" class="s6" d="m617.2 695.7c0 0 53.4-18.3 74.3-35.8 20.8-17.6-88.5-229.6-88.5-229.6 0 0 1.7 194.5 14.2 265.4z"/>
			<path id="&lt;Path&gt;" class="s7" d="m840.8 627.2l-6.2 1c0.1 0.3 0.1 0.7 0.1 0.9-0.5 7.9-43.4 29.1-73.7 40.5-6.6 5.1-15.5 7.7-26.7 7.7q-0.1 0-0.2 0c-23.4 2.3-68.4-8-78.6-15l-10.9 112.1q0 0 0 0 2.6 1.3 5.4 2.5c23.7 10.5 51.8 15.8 84.3 15.8q56.3 0 95.6-22.2 0.2-0.2 0.5-0.3 2.5-1.4 4.9-2.9 2.9-1.9 5.7-3.8 0.9-0.6 1.7-1.2 2-1.3 3.9-2.8 0.9-0.6 1.8-1.3 1.9-1.5 3.7-3 0.8-0.6 1.6-1.3 2.5-2.1 5-4.3 0 0 0 0c-7-49.6-17.9-122.4-17.9-122.4z"/>
			<path id="&lt;Path&gt;" class="s4" d="m601.3 497.1c0 0 49.5 121 50.1 125.3 0.6 4.2-4.9 31.7 3.1 39.1 7.9 7.3 61.1 19.5 83.7 15.2 22.6-4.2 95.9-37.2 96.5-47.6 0.6-10.4-72.7-213.3-81.9-237.7-9.1-24.5-46.4-33-71.5-30.6-25 2.5-85.5 18.4-96.5 33.6-11 15.3 16.5 102.7 16.5 102.7z"/>
			<g id="&lt;Group&gt;">
				<path id="&lt;Path&gt;" class="s4" d="m605.6 384.7c0 0-6.1 55.6-2.5 67.2 3.7 11.6 20.4 43.5 20.4 43.5 0 0 27.9-35 33.4-38.6 5.5-3.7 56.2 28.7 56.2 28.7 0 0 1.8-34.8-5.5-63.6-7.3-28.7-20.2-59.9-24.4-65.3-4.3-5.5-4.3 14.6-20.2 28.1-15.9 13.4-57.4 0-57.4 0z"/>
				<g id="&lt;Group&gt;">
					<path id="&lt;Path&gt;" class="s4" d="m601.1 394.3c0 0 7.2 18.5 23 40.9 15.9 22.5 37.6 39 37.6 39 0 0 17.2-44.2 21.8-70.6 4.6-26.4-3.3-52.8-3.3-52.8 0 0-3.3 39.6-17.1 47.5-13.9 7.9-62-4-62-4z"/>
					<path id="&lt;Path&gt;" class="s8" d="m637.3 400.5c-17.5-1.5-36.2-6.2-36.2-6.2 0 0 7.2 18.5 23 40.9q2.3 3.3 4.8 6.3l27.3-31.5z"/>
				</g>
			</g>
			<g id="&lt;Group&gt;">
				<path id="&lt;Path&gt;" class="s6" d="m680.2 350.8c0 0 20.1 80.3 27.4 140.8 7.3 60.5 25.1 239.5 25.1 239.5 0 0 55-15.9 83.7-36.6 28.7-20.8 37.9-34.9 37.9-34.9 0 0-47.1-205.9-47.1-208.9 0-3.1 4.9-33.7 4.9-33.7 0 0 83.1-39.1 114.9-62.9 31.8-23.8 23.8-36.7 8.5-42.8-15.2-6.1-62.9 0.6-89.2 8-26.3 7.3-39.7 12.2-39.7 12.2 0 0-29.3-2.4-56.2 3.7-26.9 6.1-70.2 15.6-70.2 15.6z"/>
				<path id="&lt;Path&gt;" class="s4" d="m722.4 556.2c-1 3.1-2 6.4-3.2 9.9"/>
				<path id="&lt;Path&gt;" class="s9" d="m731.8 420.2l9.4 6c0 0-3.1 48.7-7.3 79.4-2.6 18.6-4.8 28.7-8.9 42.4"/>
				<path id="&lt;Path&gt;" class="s9" d="m715.2 362.3c6.2 11.3 15 27.9 15 30.3 0 3.7-9.1 20.8-9.1 20.8l5.7 3.6"/>
				<path id="&lt;Path&gt;" class="s4" d="m709.4 351.7c0 0 1 1.8 2.5 4.5"/>
				<path id="&lt;Path&gt;" class="s9" d="m822 620.9c-6.8 4.7-17.1 10.7-31.3 16.1-28.7 11-33.6 12.9-33.6 12.9l4.3 14.6c0 0 50.1-9.1 73.3-35.4"/>
				<path id="&lt;Path&gt;" class="s4" d="m832.3 612.6c0 0-1.4 1.4-4.1 3.6"/>
				<path id="&lt;Path&gt;" class="s9" d="m823.1 384.6l-11 32.4 25.7-38.5"/>
				<path id="&lt;Path&gt;" class="s4" d="m828 370l-2.5 7.5"/>
			</g>
			<g id="&lt;Group&gt;">
				<path id="&lt;Path&gt;" class="s6" d="m605.6 384.7c0 0 6.1 111.2 12.8 165.6 6.7 54.3 17.7 188.8 17.7 188.8 0 0-21.4-1.9-35.4-19-14.1-17.1-20.8-29.9-20.8-29.9 0 0 0-116.1 0-121 0-4.9-9.8-60.5-18.9-88-9.2-27.5-22.6-59.3-14.7-72.7 7.9-13.5 33-33.6 42.2-36.1 9.1-2.4 16.5 0 17.1 12.3z"/>
				<path id="&lt;Path&gt;" class="s4" d="m602.1 524.3c3.5 10.8 6.8 20.4 9.6 26.6"/>
				<path id="&lt;Path&gt;" class="s9" d="m581.2 405.8c-1 8-1.5 14.1-0.7 14.9 2.5 2.5 12.2 11 12.2 11 0 0-12.2 15.3-10.4 23.2 1.3 5.2 9.3 35.5 17.5 61.9"/>
				<path id="&lt;Path&gt;" class="s4" d="m587.8 365.1c0 0-3.2 17.5-5.5 32.9"/>
				<path id="&lt;Path&gt;" class="s4" d="m595 647.6l-10.8-5.1"/>
				<path id="&lt;Path&gt;" class="s9" d="m584.2 626l29.9 12.2v18.4l-13.7-6.5"/>
			</g>
			<g id="&lt;Group&gt;">
				<path id="&lt;Path&gt;" class="s4" d="m559.9 311.1l10.5 25.6c0 0-13.6-14.1-16.8-1.5-3.1 12.5 6.3 27.1 12.6 27.1 6.2 0 13.6 0.5 13.6 0.5 0 0 21.9 38.7 35.5 46 13.5 7.3 31.8 13.6 43.3 7.3 11.5-6.3 17.8-23.5 21.4-36.6 3.7-13 1.1-52.2 1.1-52.2l-18.8-77.3c0 0 13-4.7 13-13.5 0-8.9-30.3-11.5-30.3-11.5 0 0 12-14.1-3.1-16.2-15.1-2.1-64.2 27.1-65.8 28.2-1.6 1 8.4-18.3-4.2-11.5-12.5 6.8-27.1 40.2-25.6 48 1.6 7.9 13.6 37.6 13.6 37.6z"/>
				<path id="&lt;Path&gt;" class="s7" d="m645 225c0 0 12-14.1-3.1-16.2-15.1-2.1-64.2 27.1-65.8 28.2-1.6 1 8.4-18.3-4.2-11.5-12.5 6.8-27.1 40.2-25.6 48 1.6 7.9 13.6 37.6 13.6 37.6l10.5 25.6c0 0 12 11 7.8 2.6-4.2-8.3-12.5-27.1-10.5-29.7 2.1-2.6 12.6-6.8 13.1-12.6 0.5-5.7-9.9-22.4-6.8-26.6 3.1-4.2 47.5 3.7 55.4-1 7.8-4.7-2.1-16.2-2.1-16.2l35-3.2c0 0 13-4.7 13-13.5 0-8.9-30.3-11.5-30.3-11.5z"/>
				<path id="&lt;Path&gt;" class="s4" d="m651.8 354c0 0-4.7 8.8-12 9.4"/>
				<path id="&lt;Path&gt;" class="s5" d="m619.4 329.9c1.5 3.2 0.9 6.6-1.3 7.6-2.3 1-5.2-0.7-6.7-3.8-1.5-3.2-0.8-6.5 1.4-7.6 2.2-1 5.2 0.7 6.6 3.8z"/>
				<path id="&lt;Path&gt;" class="s5" d="m661.1 321.7c0.5 3.4-1 6.5-3.4 6.9-2.5 0.4-4.9-2.1-5.4-5.5-0.6-3.4 1-6.5 3.4-6.9 2.4-0.4 4.8 2.1 5.4 5.5z"/>
				<path id="&lt;Path&gt;" class="s4" d="m639.8 383.2c0 0 8.9 0 15.2-4.7"/>
				<path id="&lt;Path&gt;" class="s10" d="m593.3 323.1c0 0 7.3-10.4 27.2-4.1"/>
				<path id="&lt;Path&gt;" class="s10" d="m646.1 313.2c0 0 3.6-12 17.7-13"/>
				<path id="&lt;Path&gt;" class="s4" d="m675.3 302.8c0 0 3.7-8.4 7.9-3.2 4.1 5.3 5.7 15.7 3.1 22.5-2.6 6.8-4.2 12.5-4.2 12.5l-1-7.3z"/>
			</g>
			<g id="&lt;Group&gt;">
				<path id="&lt;Path&gt;" class="s4" d="m771.4 262c0 0-57.4-10.4-61.1-10.4-3.6 0-46.5 7.8-52.7 10.4-6.3 2.7-53.8 16.2-52.8 19.4 1.1 3.1 6.8 4.1 6.8 4.1 0 0 1.1 4.7 17.8 6.8 16.7 2.1 55.8-3.1 56.4 0.6 0.5 3.6-2.6 6.7-2.6 6.7l4.7 8.4c0 0 17.2-2.6 22.9-6.8 5.8-4.2 22-17.2 22-17.2l35 2.6z"/>
				<path id="&lt;Path&gt;" class="s4" d="m644 269.4c0 0-23.5 9.9-27.2 12-3.6 2.1 6.8 6.2 13.1 5.2 6.3-1.1 30.3-10.5 33.9-11.5 3.7-1 20.4 3.1 32.4 4.7 12 1.6 20.4-2.1 22.5-3.1"/>
			</g>
			<path id="&lt;Path&gt;" class="s6" d="m912.9 345.6c0 0-18.3 4.8-40.3 0-22-4.9-80-33.7-80-33.7l-39.8-11.6 9.2-46.4c0 0 100.2 12.2 128.3 22.6 28.1 10.4 69.1 34.2 67.8 42.8-1.2 8.5-23.8 26.9-23.8 26.9"/>
			<path id="&lt;Path&gt;" class="s9" d="m568.7 545.2c0 0 36.8 42.1 67.8 28 31-14.2 46.4-105 46.4-105"/>
			<path id="&lt;Path&gt;" class="s9" d="m520.5 513.4c0 0 29.1 36.4 67.8 33 38.6-3.5 51.7-48.3 51.3-70.5"/>
			<g id="&lt;Group&gt;">
				<g id="&lt;Group&gt;">
					<path id="&lt;Path&gt;" class="s11" d="m517.9 548.2l-12.2-4.1 19.3-57.6 12.3 4.1z"/>
					<path id="&lt;Path&gt;" class="s8" d="m540 493.9l-19.1-6.4 2.9-8.5 19 6.4z"/>
				</g>
				<g id="&lt;Group&gt;">
					<path id="&lt;Path&gt;" class="s11" d="m545 557.3l-12.2-4.1 19.3-57.6 12.3 4.1z"/>
					<path id="&lt;Path&gt;" class="s8" d="m567.1 503l-19.1-6.4 2.9-8.5 19 6.4z"/>
				</g>
				<path id="&lt;Path&gt;" class="s8" d="m545 557.3l-39.8-13.3 14.8-44.1 39.8 13.4z"/>
				<g id="&lt;Group&gt;">
					<path id="&lt;Path&gt;" class="s11" d="m508.6 573.4l-37.1-12.5 19.7-32.5 21.4 7.2z"/>
					<path id="&lt;Path&gt;" class="s12" d="m495.4 612.8l-37.1-12.5 13.2-39.4 37.1 12.5z"/>
					<path id="&lt;Path&gt;" class="s12" d="m517.7 537.8l-31.9-10.7 13.2-39.4 31.9 10.7z"/>
				</g>
				<g id="&lt;Group&gt;">
					<path id="&lt;Path&gt;" class="s11" d="m562.8 591.6l-37.1-12.5 19.7-32.5 21.4 7.2z"/>
					<path id="&lt;Path&gt;" class="s12" d="m549.6 631l-37.1-12.5 13.2-39.4 37.1 12.5z"/>
					<path id="&lt;Path&gt;" class="s12" d="m571.9 556l-31.9-10.7 13.2-39.4 31.9 10.7z"/>
				</g>
			</g>
			<g id="&lt;Group&gt;">
				<path id="&lt;Path&gt;" class="s4" d="m486.4 485.1c0 0-4.3 7.1-3 9.1 1.2 2.1 13.7 8.9 15.5 9.4 1.8 0.5 6.6-2 6.3-5.3-0.2-3.3-9.9-10.4-12.9-12.2-3.1-1.8-4.6-2.1-5.9-1z"/>
				<path id="&lt;Path&gt;" class="s4" d="m479.6 499.1c0 0-2.1 8.1-0.3 9.7 1.8 1.6 15.7 4.6 17.6 4.5 1.8 0 5.7-3.8 4.5-6.9-1.2-3.1-12.5-7.2-15.9-8-3.5-0.8-5-0.6-5.9 0.7z"/>
				<path id="&lt;Path&gt;" class="s4" d="m475.7 513.1c0 0-2.1 8.1-0.2 9.7 1.8 1.6 15.7 4.6 17.5 4.5 1.9 0 5.8-3.8 4.6-6.9-1.2-3.1-12.5-7.2-16-8-3.4-0.8-4.9-0.6-5.9 0.7z"/>
				<path id="&lt;Path&gt;" class="s4" d="m477.5 526.6c0 0-2.1 8.1-0.3 9.7 1.8 1.6 15.8 4.5 17.6 4.5 1.9 0 5.8-3.8 4.6-6.9-1.2-3.1-12.5-7.2-16-8-3.4-0.8-5-0.6-5.9 0.7z"/>
			</g>
		</g>
	</g>
</svg>