<svg version="1.2" xmlns="http://www.w3.org/2000/svg" viewBox="0 0 758 790" width="758" height="790">
	<title>4911013_2517913-ai</title>
	<style>
		.s0 { fill: #ffffff } 
		.s1 { fill: #eaf9f8 } 
		.s2 { fill: #e03c03 } 
		.s3 { fill: #ff6224 } 
		.s4 { fill: #ffc947 } 
		.s5 { fill: #20c3c5 } 
		.s6 { fill: #383873 } 
		.s7 { fill: #86bfbc } 
		.s8 { fill: #b8e3e2 } 
		.s9 { fill: #9fccc9 } 
		.s10 { opacity: .1;mix-blend-mode: overlay;fill: none;stroke: #000000;stroke-linecap: round;stroke-width: 1.6 } 
		.s11 { fill: #382424 } 
		.s12 { fill: #ffad94 } 
		.s13 { opacity: .3;mix-blend-mode: overlay;fill: #000000 } 
		.s14 { fill: #0c2059 } 
		.s15 { fill: #2e4780 } 
		.s16 { opacity: .1;mix-blend-mode: overlay;fill: #000000 } 
		.s17 { fill: #169799 } 
		.s18 { fill: none;stroke: #000000;stroke-linecap: round;stroke-width: 1.6 } 
		.s19 { fill: none;stroke: #000000;stroke-linecap: round;stroke-width: 1.6;stroke-dasharray: 8.18478,8.18478 } 
		.s20 { fill: #000000 } 
	</style>
	<g id="BACKGROUND">
		<path id="&lt;Path&gt;" class="s0" d="m882 902h-1000v-1000h1000z"/>
	</g>
	<g id="OBJECTS">
		<g id="&lt;Group&gt;">
			<path id="&lt;Path&gt;" class="s1" d="m717.5 366.5c-46.7 69.9-146.3 286.1-121.8 366.3l-357.4 0.1c0 0-51.7-38.4-101.8-105.3-9.1-12.1-18.2-25.2-26.9-39.2-9.2-14.8-18-30.6-26-47.3-23.3-48.4-39.9-104.5-40.6-166.5-2.3-214.7 183.5-414.3 436.3-333.7 252.8 80.5 284.9 255.7 238.2 325.6z"/>
			<g id="&lt;Group&gt;">
				<g id="&lt;Group&gt;">
					<path id="&lt;Path&gt;" class="s2" d="m493.9 735.4c-0.7 0-1.4-0.3-1.9-0.9l-190.6-237c-0.9-1.1-0.7-2.6 0.3-3.5 1.1-0.8 2.6-0.7 3.5 0.4l190.6 237c0.9 1 0.7 2.6-0.4 3.4-0.4 0.4-1 0.6-1.5 0.6z"/>
				</g>
				<g id="&lt;Group&gt;">
					<path id="&lt;Path&gt;" class="s3" d="m198.2 735.4c-0.5 0-1.1-0.2-1.5-0.6-1.1-0.8-1.2-2.4-0.4-3.4l190.6-237c0.9-1.1 2.4-1.2 3.5-0.4 1 0.9 1.2 2.4 0.3 3.5l-190.6 237c-0.4 0.6-1.2 0.9-1.9 0.9z"/>
				</g>
				<g id="&lt;Group&gt;">
					<path id="&lt;Path&gt;" class="s3" d="m388.8 735.4c-0.7 0-1.4-0.3-1.9-0.9l-190.6-237c-0.8-1.1-0.7-2.6 0.4-3.5 1-0.8 2.6-0.7 3.4 0.4l190.6 237c0.9 1 0.7 2.6-0.3 3.4-0.5 0.4-1 0.6-1.6 0.6z"/>
				</g>
				<path id="&lt;Path&gt;" class="s2" d="m232 502.2h-88.6c-3.4 0-6.2-2.8-6.2-6.3 0-3.4 2.8-6.3 6.2-6.3h88.6c3.5 0 6.3 2.9 6.3 6.3 0 3.5-2.8 6.3-6.3 6.3z"/>
				<path id="&lt;Path&gt;" class="s3" d="m486.8 502.2h-253.1c-3.5 0-6.3-2.8-6.3-6.3 0-3.4 2.8-6.3 6.3-6.3h253.1z"/>
				<g id="&lt;Group&gt;">
					<path id="&lt;Path&gt;" class="s2" d="m300.4 614.4c0 3.8-3.1 6.9-6.9 6.9-3.8 0-6.8-3.1-6.8-6.9 0-3.8 3-6.8 6.8-6.8 3.8 0 6.9 3 6.9 6.8z"/>
				</g>
				<path id="&lt;Path&gt;" class="s4" d="m405.5 614.4c0 3.8-3.1 6.9-6.9 6.9-3.8 0-6.9-3.1-6.9-6.9 0-3.8 3.1-6.8 6.9-6.8 3.8 0 6.9 3 6.9 6.8z"/>
			</g>
			<g id="&lt;Group&gt;">
				<path id="&lt;Path&gt;" class="s5" d="m314 301.8h-89.2c-4.4 0-8-3.6-8-8v-66.3c0-4.4 3.6-8 8-8h89.2c4.4 0 8 3.6 8 8v66.3c0 4.4-3.6 8-8 8z"/>
				<path id="&lt;Compound Path&gt;" fill-rule="evenodd" class="s0" d="m294.7 258.3v5.1c0 1.4-1.1 2.5-2.5 2.5h-3.1q-0.7 3-2.1 5.5l1.9 2c1 1 1 2.5 0 3.5l-3.5 3.6c-1 1-2.6 1-3.6 0l-1.9-1.9q-2.6 1.5-5.7 2.3v2.6c0 1.4-1.1 2.5-2.5 2.5h-5c-1.4 0-2.5-1.1-2.5-2.5v-2.8c-2-0.6-3.8-1.4-5.5-2.5l-2 2c-1 1-2.6 1-3.5 0l-3.6-3.6c-1-1-1-2.5 0-3.5l2.3-2.3q-1.3-2.5-1.9-5.3h-3.4c-1.4 0-2.5-1.1-2.5-2.5v-5.1c0-1.4 1.1-2.5 2.5-2.5h3.9q0.7-2.5 2.1-4.7l-2.7-2.8c-1-0.9-1-2.5 0-3.5l3.6-3.6c0.9-1 2.5-1 3.5 0l2.9 3q2.2-1.2 4.7-1.9v-4.1c0-1.3 1.1-2.5 2.5-2.5h5.1c1.3 0 2.4 1.2 2.4 2.5v4.1q2.6 0.7 4.8 1.9l2.7-2.7c1-1 2.6-1 3.6 0l3.5 3.6c1 1 1 2.6 0 3.5l-2.5 2.6q1.5 2.3 2.2 5h3.3c1.4 0 2.5 1.2 2.5 2.5zm-12.5 5.5c1.7-9-6.1-16.7-15.1-15-5 1-9.1 5-10 10-1.7 9 6 16.8 15 15.1 5-1 9.1-5 10.1-10.1z"/>
			</g>
			<g id="&lt;Group&gt;">
				<path id="&lt;Path&gt;" class="s3" d="m448.3 256.3h-89.2c-4.4 0-8-3.5-8-7.9v-66.4c0-4.4 3.6-8 8-8h89.2c4.4 0 8 3.6 8 8v66.4c0 4.4-3.6 7.9-8 7.9z"/>
				<g id="&lt;Group&gt;">
					<g id="&lt;Group&gt;">
						<g id="&lt;Group&gt;">
							<path id="&lt;Path&gt;" class="s0" d="m386 229c-0.7 0-1.3-0.2-1.8-0.7l-11.1-11.9c-0.9-1-0.9-2.7 0-3.7l11.3-12.1c1-1 2.5-1 3.5 0 0.9 1 0.9 2.7 0 3.7l-9.5 10.2 9.3 10c1 1.1 1 2.7 0 3.8-0.5 0.5-1.1 0.7-1.7 0.7z"/>
						</g>
						<g id="&lt;Group&gt;">
							<path id="&lt;Path&gt;" class="s0" d="m421.5 229c-0.7 0-1.3-0.2-1.8-0.7-0.9-1.1-0.9-2.7 0-3.8l9.4-10-9.5-10.2c-1-1-1-2.7 0-3.7 0.9-1 2.5-1 3.4 0l11.3 12.1c0.5 0.5 0.7 1.1 0.7 1.8 0 0.7-0.2 1.4-0.7 1.9l-11.1 11.9c-0.5 0.5-1.1 0.7-1.7 0.7z"/>
						</g>
					</g>
					<g id="&lt;Group&gt;">
						<path id="&lt;Path&gt;" class="s0" d="m398.2 232.3q-0.4 0-0.9-0.2c-1.3-0.6-1.9-2.1-1.4-3.4l11-29c0.6-1.3 2-2 3.2-1.4 1.3 0.5 1.9 2.1 1.4 3.4l-11 28.9c-0.4 1.1-1.3 1.7-2.3 1.7z"/>
					</g>
				</g>
			</g>
			<g id="&lt;Group&gt;">
				<g id="&lt;Group&gt;">
					<g id="&lt;Group&gt;">
						<path id="&lt;Path&gt;" class="s0" d="m528.9 272.2h-221.4v-6.8c0-1.9 1.5-3.4 3.3-3.4h214.7c1.9 0 3.4 1.5 3.4 3.4z"/>
					</g>
					<path id="&lt;Path&gt;" class="s6" d="m522.7 390.2h-209c-3.4 0-6.2-2.8-6.2-6.2v-111.8h221.4v111.8c0 3.4-2.8 6.2-6.2 6.2z"/>
					<g id="&lt;Group&gt;">
						<g id="&lt;Group&gt;">
							<path id="&lt;Path&gt;" class="s3" d="m518.2 267.1c0 0.9-0.7 1.6-1.5 1.6-0.9 0-1.6-0.7-1.6-1.6 0-0.9 0.7-1.6 1.6-1.6 0.8 0 1.5 0.7 1.5 1.6z"/>
							<path id="&lt;Path&gt;" class="s3" d="m507.5 267.1c0 0.9-0.7 1.6-1.5 1.6-0.9 0-1.6-0.7-1.6-1.6 0-0.9 0.7-1.6 1.6-1.6 0.8 0 1.5 0.7 1.5 1.6z"/>
							<path id="&lt;Path&gt;" class="s3" d="m496.8 267.1c0 0.9-0.7 1.6-1.5 1.6-0.9 0-1.6-0.7-1.6-1.6 0-0.9 0.7-1.6 1.6-1.6 0.8 0 1.5 0.7 1.5 1.6z"/>
						</g>
					</g>
					<path id="&lt;Path&gt;" class="s5" d="m441.9 288.1h-122.9c-1.2 0-2.2-1-2.2-2.1 0-1.2 1-2.2 2.2-2.2h122.9c1.2 0 2.1 1 2.1 2.2 0 1.1-0.9 2.1-2.1 2.1z"/>
					<path id="&lt;Path&gt;" class="s5" d="m441.9 301.7h-122.9c-1.2 0-2.2-0.9-2.2-2.1 0-1.2 1-2.2 2.2-2.2h122.9c1.2 0 2.1 1 2.1 2.2 0 1.2-0.9 2.1-2.1 2.1z"/>
					<path id="&lt;Path&gt;" class="s5" d="m383.3 315.3h-64.3c-1.2 0-2.2-0.9-2.2-2.1 0-1.2 1-2.1 2.2-2.1h64.3c1.1 0 2.1 0.9 2.1 2.1 0 1.2-1 2.1-2.1 2.1z"/>
					<path id="&lt;Path&gt;" class="s3" d="m441.9 342.6h-122.9c-1.2 0-2.2-1-2.2-2.2 0-1.2 1-2.1 2.2-2.1h122.9c1.2 0 2.1 0.9 2.1 2.1 0 1.2-0.9 2.2-2.1 2.2z"/>
					<path id="&lt;Path&gt;" class="s3" d="m383.3 356.2h-64.3c-1.2 0-2.2-1-2.2-2.2 0-1.1 1-2.1 2.2-2.1h64.3c1.1 0 2.1 1 2.1 2.1 0 1.2-1 2.2-2.1 2.2z"/>
					<path id="&lt;Path&gt;" class="s5" d="m383.3 369.8h-64.3c-1.2 0-2.2-1-2.2-2.1 0-1.2 1-2.2 2.2-2.2h64.3c1.1 0 2.1 1 2.1 2.2 0 1.1-1 2.1-2.1 2.1z"/>
					<path id="&lt;Path&gt;" class="s0" d="m441.9 315.3h-46.2c-1.2 0-2.1-0.9-2.1-2.1 0-1.2 0.9-2.1 2.1-2.1h46.2c1.2 0 2.1 0.9 2.1 2.1 0 1.2-0.9 2.1-2.1 2.1z"/>
					<path id="&lt;Path&gt;" class="s3" d="m502.9 284.8l-32.7 32.6c-0.8 0.9-2.1 0.9-3 0-0.8-0.8-0.8-2.2 0-3l32.7-32.7c0.8-0.8 2.2-0.8 3 0 0.8 0.9 0.8 2.2 0 3.1z"/>
					<path id="&lt;Path&gt;" class="s3" d="m504.3 346.6c0 10.6-8.6 19.2-19.2 19.2-10.7 0-19.3-8.6-19.3-19.2 0-10.7 8.6-19.3 19.3-19.3 10.6 0 19.2 8.6 19.2 19.3z"/>
					<path id="&lt;Path&gt;" class="s5" d="m482.5 360c0 6-4.8 10.9-10.9 10.9-6 0-10.9-4.9-10.9-10.9 0-6 4.9-10.9 10.9-10.9 6.1 0 10.9 4.9 10.9 10.9z"/>
				</g>
				<path id="&lt;Path&gt;" class="s6" d="m307.5 378.2v39l35.8-35.8"/>
			</g>
			<g id="&lt;Group&gt;">
				<path id="&lt;Path&gt;" class="s7" d="m269.4 427.7h78.5l28.4 54.6h-78.5z"/>
				<path id="&lt;Path&gt;" class="s0" d="m299.4 478.3l-23.5-45.2c-0.5-1 0.2-2.1 1.2-2.1h68c0.5 0 1 0.3 1.2 0.7l23.6 45.3c0.4 0.9-0.2 2.1-1.3 2.1h-67.9c-0.6 0-1.1-0.3-1.3-0.8z"/>
				<path id="&lt;Path&gt;" class="s8" d="m361.4 482.3h-63.6v7.3h63.6z"/>
				<path id="&lt;Path&gt;" class="s9" d="m416 482.3h-62.7c-2 0-3.7 1.7-3.7 3.7 0 2 1.7 3.6 3.7 3.6h62.7c2.1 0 3.7-1.6 3.7-3.6 0-2-1.6-3.7-3.7-3.7z"/>
				<path id="&lt;Path&gt;" class="s8" d="m297.8 482.3l-28.4-54.6-1.4 1.1c-0.9 0.7-1.2 1.9-0.7 2.9l30.5 57.9z"/>
				<path id="&lt;Path&gt;" class="s9" d="m326.4 487h-7v-1.2h7z"/>
				<path id="&lt;Path&gt;" class="s9" d="m335.2 487h-7v-1.2h7z"/>
				<path id="&lt;Path&gt;" class="s9" d="m344 487h-7v-1.2h7z"/>
			</g>
			<g id="&lt;Group&gt;">
				<path id="&lt;Path&gt;" class="s6" d="m441 589.3c0 0-65.2 50.7-75.5 63.6-3.9 4.9-10.7 13.4-17.7 22.2-11.6 14.4-23.8 29.4-25.3 29.7-2.3 0.6-21.9-14.3-22.5-17.5-0.3-2 17.5-32.5 32.9-57.1 9.4-14.9 17.8-27.6 20.8-30.4 7.9-7.3 56.3-32.9 56.3-32.9z"/>
				<path id="&lt;Path&gt;" class="s10" d="m316.7 694c0 0 60.8-86.6 91.4-101.2"/>
				<path id="&lt;Path&gt;" class="s11" d="m508.9 366.9q-1.1 2.4-2.4 4.9c-4.8 9.1-1.3 18.2-6.7 20.5q-0.5 0.3-1.1 0.4c-7 1.5-23.1-7.8-23.8-12.5-0.7-4.6 4.9-12.6 0-13.6-5-0.9-7.7 7.4-7.7 7.4-4.1 0.5-5.5-6.4-12.3-6.4q-1.4 0-2.7 0.4c-3.2 0.7-6 2.7-7.7 4.2-1.3 1.1-2.1 2-2.1 2 0 0-6-3.8-5.7-11.3 0.5-11.8 4.8-20.4 15.3-22.1 1.2-13.2 12-20.2 26.4-20.6 12.7-0.4 14.6 11 14.9 13.8-0.1-2.1-0.7-9.1-3.7-13.8 6.3-0.3 11.9 4.2 10.4 19 1.5-4.4 6.6-7.2 10.5-4-3.6 0-7.1 6.1-7.1 6.1 0 0 4.3 2.8 7.2 7.8 2.4 4.2 1.5 10.4-1.7 17.8z"/>
				<path id="&lt;Path&gt;" class="s12" d="m499.8 392.3l-0.1 2.2-0.6 7.7c0 0-11.7 9.9-18.3 0q0-0.1-0.1-0.2c-2.1-3.1-3.9-4.1-5.6-4.3-3.7-0.5-6.6 3.1-9.6-0.8-8.8-11-12.2-23.8-13.3-28.9q1.3-0.4 2.7-0.4c6.8 0 8.2 6.9 12.3 6.4 0 0 2.7-8.3 7.7-7.4 4.9 1-0.7 9 0 13.6 0.3 2.1 3.7 5.1 8 7.7 4.9 3 11.2 5.4 15.1 4.9q0.4 0 0.7-0.1 0.6-0.1 1.1-0.4z"/>
				<path id="&lt;Path&gt;" class="s13" d="m501.6 406.6c-5.2 3.6-14.8 4.2-14.8 4.2l-7.9-1.2c0 0-3.3-4.8-1.8-7.4 0.3-0.6 1.1-1.3 2.1-2.1 2.1-1.8 5.5-4 9-5.8 3.7-1.9 7.4-3.4 10.1-3.6 6.6-0.3 8.6 12.3 3.3 15.9z"/>
				<path id="&lt;Path&gt;" class="s5" d="m500.1 534.3c-11.7 2.2-36.5-4.7-48.4-10-3.5-1.6-5.9-3-6.5-4-2.3-4 0-7.1 5.7-19.9q0.9-2.1 2-4.6c3.8-9.1 3.9-28.3 3.8-44.9 0-14.2-0.1-26.4 2.2-28.6 4.9-4.7 29.3-20.1 29.3-20.1l4.9 25.3c0 0 2.7 12.9 5.6 29.7 5.4 30.9 11.2 75.2 1.4 77.1z"/>
				<path id="&lt;Path&gt;" class="s6" d="m508.2 545.6c0 1.1-11.6 28.3-21.4 32.2-9.8 3.9-68.8-0.4-68.8-0.4l-29.2 19.1 6.1 57.5 4.3 40 0.1 1.3c-8.9 5.8-31.4 7.4-33.8 2.4q0 0 0 0c-2.4-5.1-38.1-112.9-24.1-131.5 14-18.7 103.8-45.9 103.8-45.9 2.4 1.5 5.1 2.8 8 4 10 4.1 22.7 6.7 32.4 8.2 3.7 0.5 6.9 1 9.4 1.3 3.2 0.3 5.1 0.5 5.1 0.5 0 0 8.1 10.1 8.1 11.3z"/>
				<path id="&lt;Path&gt;" class="s14" d="m403 732.8h-75.8c-0.4-1.3 0.1-2.7 1.2-4 3.1-3.7 10.8-7.4 18.3-10.7 7-3 13.8-5.6 16.1-7.4 5.3-4.3 2.8-12.5 2.7-13 0.8 1.7 3.9 2.6 8 2.9 8 0.6 19.9-1.4 25.8-5.3l-0.1-1.3c2.2 4.3 3.3 25.7 3.7 34.8 0.1 2.5 0.1 4 0.1 4z"/>
				<path id="&lt;Path&gt;" class="s15" d="m373.5 700.6c-0.2 3.6-0.7 9.5-1.8 11-1.5 2.4-18.3 10.6-20.6 9.8-1.5-0.5-3.3-2.2-4.4-3.3 7-3 13.8-5.6 16.1-7.4 5.3-4.3 2.8-12.5 2.7-13 0.8 1.7 3.9 2.6 8 2.9z"/>
				<path id="&lt;Path&gt;" class="s15" d="m403 732.8h-75.8c-0.4-1.3 0.1-2.7 1.2-4h74.5c0.1 2.5 0.1 4 0.1 4z"/>
				<path id="&lt;Path&gt;" class="s14" d="m322.5 704.8c0 0-5.8 15.2-10.8 23.3-1.9 3.2-3.8 5.3-5.1 4.7-4.7-1.7-51.6-41.6-47.1-44.5 0.6-0.4 1.7-0.7 3-0.9 4.1-0.5 10.8 0.1 17.1 0.7 5.4 0.6 10.4 1.2 13 1.2 6.6 0 7.4-2 7.4-2 0.2 0.8 1.4 2.3 3.3 4 5.8 5.5 17.4 14 19.2 13.5z"/>
				<path id="&lt;Path&gt;" class="s15" d="m303.3 691.3c-10 6.6-20.3 2.7-22.4 1.1-1.5-1.1-1.5-3.1-1.3-4.3 5.4 0.6 10.4 1.2 13 1.2 6.6 0 7.4-2 7.4-2 0.2 0.8 1.4 2.3 3.3 4z"/>
				<path id="&lt;Path&gt;" class="s15" d="m311.7 728.1c-1.9 3.2-3.8 5.3-5.1 4.7-4.7-1.7-51.6-41.6-47.1-44.5 0.6-0.4 1.7-0.7 3-0.9z"/>
				<path id="&lt;Path&gt;" class="s12" d="m451.7 484.6c-3.6 5.1-10.2 12.9-15.6 12.1q-0.3 0-0.7-0.1c-10.3-1.8-70.9-17-73.8-17.6-2.9-0.5-23.3-0.7-22.2-2.9 1.2-2.1 12.9-8.9 16-8.8 3.1 0.2 15.3 3.8 27.6 3.4 12.2-0.4 44.3 0 44.3 0l1.6-2.7 2.3-4c-0.7 11.9 13.7 21.6 20.5 20.6z"/>
				<path id="&lt;Path&gt;" class="s10" d="m451.7 528.9c0 0-2.8 14.9 8.1 19.9"/>
				<path id="&lt;Path&gt;" class="s10" d="m446 540.9c0 0-72 30.7-75.5 40.2-3.5 9.6 18.3 112.9 18.3 112.9"/>
				<path id="&lt;Path&gt;" class="s16" d="m508.2 545.6c0 1.1-11.6 28.3-21.4 32.2-9.8 3.9-68.8-0.4-68.8-0.4l-29.2 19.1 6.1 57.5c0 0-12.3-65.6-12.3-69.9 0-3.7 81.5-27.1 103-51.6 8.4 1.3 14.5 1.8 14.5 1.8 0 0 8.1 10.1 8.1 11.3z"/>
				<path id="&lt;Path&gt;" class="s13" d="m469.8 475.9c-5 7.2-13.2 16.3-18.9 24.5q0.9-2.1 2-4.6c3.8-9.1 3.9-28.3 3.8-44.9l17.5-11.5c0 0 3.8 25-4.4 36.5z"/>
				<path id="&lt;Path&gt;" class="s17" d="m454.9 482.4q-1.1 1.1-2.3 2-0.4 0.2-0.9 0.2c-6.8 1-21.2-8.7-20.5-20.6 0-0.9 0.7-2.6 1.9-4.9 5.8-11.9 23.5-38.2 26.7-36.9 0 0 11.3 1.7 14.4 17.2 2.9 14.5-7.5 32.1-19.3 43z"/>
				<path id="&lt;Path&gt;" class="s13" d="m495 533.8c-2.5-0.3-5.7-0.8-9.4-1.3-9.7-1.5-22.4-4.1-32.4-8.2 8.8-0.3 27.7-6.1 30-49.2 1 8 2.6 16.4 4.7 25 2.9 11.3 5.6 23.3 7.1 33.7z"/>
				<path id="&lt;Path&gt;" class="s13" d="m490.4 391.5q-1.4 1.6-2.2 2.8c-3.5 1.8-6.9 4-9 5.8-1.5-1.7-2.8-2.3-4.1-2.4l7.8-9.8c2.3 1.4 4.9 2.7 7.5 3.6z"/>
				<path id="&lt;Path&gt;" class="s13" d="m451.7 484.6c-3.6 5.1-10.2 12.9-15.6 12.1q-0.3 0-0.7-0.1c-6.7-9.6-6.9-22.3-6.5-28.6l2.3-4c-0.7 11.9 13.7 21.6 20.5 20.6z"/>
				<path id="&lt;Path&gt;" class="s13" d="m508.9 366.9q-1.1 2.4-2.4 4.9c-2.3 4.5-2.7 8.9-3.1 12.6q-1.2-0.9-2.4-1.6c-5 3-8.4 6.1-10.6 8.7-7.2-2.6-15-8-15.5-11.3-0.7-4.6 4.9-12.6 0-13.6-5-0.9-7.7 7.4-7.7 7.4-4.1 0.5-5.5-6.4-12.3-6.4q-1.4 0-2.7 0.4c-3.2 0.7-6 2.7-7.7 4.2 0 0 7.5-10.6 19.4-8.5 0 0-1.7-3.3-9.7-2.9 16.7-5.5 27.4-3.3 32.6 2.7 4.2 4.9 14 11 22.1 3.4z"/>
			</g>
			<g id="&lt;Group&gt;">
				<path id="&lt;Path&gt;" class="s8" d="m542.9 596.5h-58.4c0 0 46.3-13.6 46.3-105.4q0-1.8 0-3.5c-0.5-61.4-13.6-95.2-29.8-104.8 5.1-3 11.8-5.9 20.7-7.9 3.9-0.9 8.2-1.6 12.9-2.1 40-4 71.9 11.6 75.7 29.4 3.8 17.7-19.6 194.3-67.4 194.3z"/>
				<path id="&lt;Path&gt;" class="s7" d="m530.8 491.1c0 91.8-46.3 105.4-46.3 105.4h-95.7l4-2.8 25.2-16.3 50.6-3.5c2.7-11.2 10.1-11.6 21.4-12.8 6.5-0.7 7.2-11.7 5.2-26.4-1.5-10.5-4.3-22.9-7.3-34.6-2.1-8.6-3.7-17-4.7-25-1.3-9.5-1.8-18.5-1.9-27-0.1-19.4 2.3-35.9 4.7-47.8q0.4-1.8 0.8-3.4 0 0 0-0.1c0.2-0.5 1.2-2.6 3.6-5.3 2.2-2.6 5.6-5.7 10.6-8.7q1.2 0.7 2.4 1.6c15.1 11.5 26.9 44.9 27.4 103.2q0 1.7 0 3.5z"/>
				<path id="&lt;Path&gt;" class="s8" d="m512.3 732.8h-68.8c-2.4 0-3.4-2.9-1.6-4.4l17.3-13.5c7.6-6 12.1-15.2 12.1-24.9v-93.5h13.2v93.5c0 9.7 4.5 18.9 12.1 24.9l17.3 13.5c1.8 1.5 0.8 4.4-1.6 4.4z"/>
				<g id="&lt;Group&gt;" style="opacity: .3;mix-blend-mode: overlay">
					<g id="&lt;Group&gt;">
						<path id="&lt;Path&gt;" class="s18" d="m564.9 376.4c0 0 0.5 1.3 1.3 3.8"/>
						<path id="&lt;Path&gt;" class="s19" d="m568.5 388.2c2.4 8.8 5.4 22.4 7.8 41.1 6.3 48.3-0.1 116.1-42.1 159"/>
						<path id="&lt;Path&gt;" class="s18" d="m531.2 591.3q-1.4 1.4-3 2.7"/>
					</g>
				</g>
				<path id="&lt;Path&gt;" class="s16" d="m484.5 596.5v25.6c-4.6 2.3-9.2 4.2-13.2 5.5v-31.1z"/>
				<path id="&lt;Path&gt;" class="s16" d="m502.8 556.8c-3.1 9.8-22.5 8-24.9 15.2-5 15.3-7.8 8.6-27 10.5-11 1.1-19 8.2-23.8 14h-38.3l4-2.8 25.2-16.3 50.6-3.5c2.7-11.2 10.1-11.6 21.4-12.8 6.5-0.7 7.2-11.7 5.2-26.4-1.5-10.5-4.3-22.9-7.3-34.6-2.1-8.6-3.7-17-4.7-25-1.3-9.5-1.8-18.5-1.9-27 7.5 39 23.8 101.5 21.5 108.7z"/>
				<path id="&lt;Path&gt;" class="s16" d="m530.8 491.1q0-1.8 0-3.5c-0.5-61.4-13.6-95.2-29.8-104.8 5.1-3 11.8-5.9 20.7-7.9-2.7 3.9-5.4 9.7-4.1 15.8 2.3 10.9 28.8 52.9 18.7 120.2-7.3 48.6-4.9 73.9 2.7 85.6h-54.5c0 0 46.3-13.6 46.3-105.4z"/>
			</g>
			<path id="&lt;Path&gt;" class="s13" d="m196.9 441.1c0 2.1-0.2 4.1-0.6 5.9h-18.8c-5.5-3.6-14.5-10.9-19.9-21.8 5 5.5 13.6 12.1 22.3 14.2 7.7 1.7 13.3 1 17 1.7z"/>
			<g id="&lt;Group&gt;">
				<path id="&lt;Path&gt;" class="s5" d="m240.5 366.5c-2.1 7.7-11.7 22.4-20.5 38.2-9.6 17.3-18.1 35.8-14.8 47.5 0.9 3 1.2 5.1 1.2 6.7 0.1 5.1-3.8 3.5-7.7 0.6-4-3-8.1-7.3-8.1-7.3l0.3-22.7c0 0-12.9-11.9-2.3-37.8q1-2.5 2.3-5.1c14.6-29.5 36.5-60.4 15.8-69.2 28.6-1.7 38.2 33.2 33.8 49.1z"/>
				<g id="&lt;Group&gt;" style="opacity: .5;mix-blend-mode: overlay">
					<path id="&lt;Path&gt;" class="s20" d="m206.7 317.4c5.3 1.2 10 4.8 13 9.4 0.8 1.1 1.3 2.3 2 3.5 0.4 1.3 1.1 2.6 1.4 3.9 0.4 1.3 0.7 2.6 0.9 4l0.4 2 0.1 2.1c-0.1 5.5-1.9 10.8-3.7 15.9-1.9 5.2-4.1 10.2-6.4 15.1-4.5 10-9.4 19.7-13.8 29.7-2.1 5-4.2 10.1-5.7 15.3-0.8 2.5-1.3 5.2-1.7 7.8-0.3 2.7-0.3 5.4 0.5 7.7l0.1 0.1c0.1 0.4-0.1 0.9-0.5 1-0.5 0.2-0.9-0.1-1.1-0.5q0 0 0 0c-0.9-2.8-0.9-5.7-0.5-8.5 0.4-2.7 1-5.4 1.8-8.1 1.7-5.2 3.8-10.3 6-15.3 4.5-10 9.5-19.6 14.2-29.5 2.3-4.9 4.6-9.9 6.5-15 1.9-5.1 3.7-10.3 3.9-15.7l-0.1-2-0.3-2c-0.2-1.4-0.6-2.7-0.9-4-0.3-1.3-0.9-2.6-1.4-3.9-0.6-1.2-1.1-2.4-1.9-3.5-2.9-4.6-7.5-8.2-12.8-9.5z"/>
				</g>
				<path id="&lt;Path&gt;" class="s17" d="m227.4 412.5c-8.7 23.1 0 40.6-13.1 43-6 1.2-8.7-3.3-9.8-8.4-1.3-6.2-0.4-13.3-0.4-13.3 0 0 2.2-5.7 6.9-11.2 3.8-4.5 9.2-8.9 16.4-10.1z"/>
				<path id="&lt;Path&gt;" class="s8" d="m196.9 441.1c0 5.4-1.2 9.9-3.7 12.3q-0.4 0.4-0.8 0.6c-6.2 5.1-10.1-4.1-10.1-4.1 0 0-16.5-8.2-24.7-24.7-6.3-12.7-7.7-30.3 7.1-53 2.1 16.1 11 27.1 19.8 37.6q0 0 0 0 1.6 2 3.2 3.9c6.1 7.3 9.3 18.5 9.2 27.4z"/>
				<g id="&lt;Group&gt;" style="opacity: .5;mix-blend-mode: overlay">
					<path id="&lt;Path&gt;" class="s20" d="m164.7 372.2c-1.5 6.9-1.8 14.1-1.1 21.1 0.7 7.1 2.6 14 6.4 20 3.7 6 8.8 11 13.4 16.4 2.3 2.7 4.5 5.6 6.1 8.9 1.5 3.3 2.3 7.1 2 10.8-0.1 0.4-0.5 0.7-0.9 0.7-0.5 0-0.8-0.4-0.8-0.9q0 0 0 0c0.4-3.4-0.2-6.8-1.6-10-1.4-3.1-3.5-6-5.7-8.7-4.5-5.5-9.5-10.6-13.2-16.8-3.7-6.1-5.5-13.3-6.1-20.3-0.6-7.1-0.1-14.3 1.5-21.2z"/>
				</g>
				<g id="&lt;Group&gt;" style="opacity: .3;mix-blend-mode: overlay">
					<path id="&lt;Path&gt;" class="s20" d="m227.4 412.5c-2.5 2.9-4.8 6-7.1 9.1-2.2 3.1-4.3 6.3-6.2 9.6-3.8 6.6-7 13.7-8.1 21.1 0 0.5-0.4 0.8-0.9 0.7-0.4 0-0.8-0.4-0.7-0.9q0 0 0 0c1.4-7.8 5-14.8 9-21.3 2-3.3 4.3-6.4 6.6-9.5 2.3-3 4.8-6 7.4-8.8z"/>
				</g>
				<path id="&lt;Path&gt;" class="s8" d="m222.1 452.8l-5.6 34.4c-0.3 1.4-1.5 2.4-3 2.4h-34.9c-1.5 0-2.7-1-3-2.4l-4.6-28-1-6.4c-0.4-1.9 1.1-3.6 3-3.6h46.1c1.9 0 3.3 1.7 3 3.6z"/>
				<path id="&lt;Path&gt;" class="s7" d="m227.4 459.8h-62.7l1.6-9.4c0.4-1.9 2.1-3.4 4.1-3.4h51.3c2 0 3.7 1.5 4 3.4z"/>
				<path id="&lt;Path&gt;" class="s13" d="m204.1 433.8c0 0-0.9 7.1 0.4 13.2h-8.2c0.4-1.8 0.6-3.8 0.6-5.9 0.1-8.9-3.1-20.1-9.2-27.4q-1.6-1.9-3.2-3.9 0 0 0 0c0.1-5 1.2-11.1 4.1-18.1 0.5 8.2 2.5 22.6 10.8 24.1 6.3 1.2 14.4-5 20.6-11.1-3.2 5.9-6.4 12-9 17.9-4.7 5.5-6.9 11.2-6.9 11.2z"/>
				<path id="&lt;Path&gt;" class="s13" d="m199.4 489.6h-20.8c-1.5 0-2.7-1-3-2.4l-4.5-27.4h18c-0.4 3.8-1 11 0.4 16.5 1 4.4 4.9 10.1 9.9 13.3z"/>
			</g>
			<g id="&lt;Group&gt;">
				<path id="&lt;Path&gt;" class="s6" d="m357.2 206.5h-89.3c-4.4 0-7.9-3.6-7.9-8v-66.3c0-4.4 3.5-8 7.9-8h89.3c4.4 0 7.9 3.6 7.9 8v66.3c0 4.4-3.5 8-7.9 8z"/>
				<g id="&lt;Group&gt;">
					<path id="&lt;Compound Path&gt;" class="s0" d="m284.5 153.3v8.9c0 0.7 0.5 1.2 1.2 1.2h4.9c0.8 0 1.3-0.5 1.3-1.2v-8.9c0-0.7 0.6-1.3 1.3-1.3h0.5c0.7 0 1.3 0.6 1.3 1.3v24.1c0 0.7-0.6 1.3-1.3 1.3h-0.5c-0.7 0-1.3-0.6-1.3-1.3v-9.9c0-0.7-0.5-1.3-1.3-1.3h-4.9c-0.7 0-1.2 0.6-1.2 1.3v9.9c0 0.7-0.6 1.3-1.3 1.3h-0.5c-0.7 0-1.3-0.6-1.3-1.3v-24.1c0-0.7 0.6-1.3 1.3-1.3h0.5c0.7 0 1.3 0.6 1.3 1.3z"/>
					<path id="&lt;Compound Path&gt;" class="s0" d="m301.6 154.7h-2.3c-0.8 0-1.3-0.5-1.3-1.2v-0.2c0-0.7 0.5-1.3 1.3-1.3h10.2c0.7 0 1.2 0.6 1.2 1.3v0.2c0 0.7-0.5 1.2-1.2 1.2h-2.3c-0.7 0-1.3 0.6-1.3 1.3v21.4c0 0.7-0.6 1.3-1.3 1.3h-0.5c-0.7 0-1.3-0.6-1.3-1.3v-21.4c0-0.7-0.5-1.3-1.2-1.3z"/>
					<path id="&lt;Compound Path&gt;" class="s0" d="m329.7 167.2c-0.2-3.5-0.4-7.4-0.3-10.4h-0.2c-0.6 2.9-1.3 6.1-2.1 9.2l-3.3 12.5h-1.9l-3.1-12c-0.9-3.4-1.7-6.7-2.2-9.7h-0.1c0 3.1-0.2 6.8-0.3 10.6l-0.5 10c0 0.7-0.6 1.3-1.3 1.3h-0.1c-0.8 0-1.3-0.7-1.3-1.4l1.4-24.1c0.1-0.7 0.6-1.2 1.3-1.2h1.1c0.6 0 1.1 0.4 1.2 1l2.9 11.2c0.9 3.5 1.6 6.1 2.1 9.2h0.2c0.5-3.1 1.1-5.6 1.9-9.2l2.8-11.2c0.1-0.6 0.7-1 1.2-1h1.2c0.7 0 1.3 0.5 1.3 1.2l1.4 24.1c0 0.7-0.5 1.4-1.3 1.4h-0.2c-0.7 0-1.3-0.6-1.3-1.3z"/>
					<path id="&lt;Compound Path&gt;" class="s0" d="m338.5 152h0.5c0.7 0 1.3 0.6 1.3 1.3v21.5c0 0.7 0.5 1.3 1.3 1.3h4.9c0.7 0 1.3 0.6 1.3 1.3 0 0.7-0.6 1.3-1.3 1.3h-8c-0.7 0-1.3-0.6-1.3-1.3v-24.1c0-0.7 0.6-1.3 1.3-1.3z"/>
				</g>
			</g>
			<g id="&lt;Group&gt;">
				<g id="&lt;Group&gt;">
					<g id="&lt;Group&gt;">
						<path id="&lt;Compound Path&gt;" class="s6" d="m397.8 131.2c3.4 0 4.2-2.2 4.2-4.2 0-1.8-0.2-3.5-0.4-5.2-0.2-1.8-0.4-3.4-0.4-5.3 0-5.5 3.4-7.8 7.7-7.8h0.7v3.2h-0.9c-2.6 0-3.6 1.8-3.6 4.5 0 1.7 0.2 3.2 0.4 4.6 0.1 1.6 0.3 3.1 0.3 4.5 0 4.8-1.6 6.4-4.2 7.1v0.2c2.6 0.7 4.2 2.4 4.2 7.2 0 1.5-0.2 3-0.3 4.5-0.2 1.6-0.4 3.1-0.4 4.7 0 2.7 0.9 4.6 3.7 4.6h0.8v3.2h-0.8c-4 0-7.6-2-7.6-7.8 0-1.8 0.2-3.6 0.4-5.4 0.2-1.8 0.4-3.5 0.4-5.2 0-2-0.8-4.3-4.2-4.3z"/>
						<path id="&lt;Compound Path&gt;" class="s6" d="m459.7 134.3c-3.3 0-4.1 2.3-4.1 4.3 0 1.7 0.2 3.4 0.3 5.2 0.2 1.8 0.4 3.6 0.4 5.4 0 5.8-3.6 7.8-7.6 7.8h-0.8v-3.2h0.9c2.7-0.3 3.6-1.9 3.6-4.6 0-1.6-0.2-3.1-0.3-4.7-0.2-1.5-0.3-3-0.3-4.5-0.1-4.8 1.5-6.5 4.1-7.2v-0.2c-2.6-0.7-4.2-2.3-4.1-7.1 0-1.4 0.1-2.9 0.3-4.5 0.1-1.4 0.3-2.9 0.3-4.6 0-2.7-1-4.2-3.6-4.5h-0.9v-3.2h0.8c4.3 0 7.6 2.3 7.6 7.8 0 1.9-0.2 3.5-0.4 5.3-0.1 1.7-0.3 3.4-0.3 5.2 0 2 0.8 4.2 4.1 4.2z"/>
					</g>
				</g>
				<path id="&lt;Path&gt;" class="s3" d="m438.9 138.7v-11.7l-10.1-5.8-10.1 5.8v11.7l10.1 5.8z"/>
			</g>
			<g id="&lt;Group&gt;">
				<path id="&lt;Path&gt;" class="s3" d="m515 196.9c-9.6-4.8-21-2.9-28.5 4.6-9.3 9.3-9.6 24.1-1 33.8l-3.7-0.4c-0.4-0.1-0.8 0.2-0.9 0.7 0 0.4 0.3 0.9 0.7 0.9l5.7 0.7q0.3 0 0.6-0.2 0.2-0.2 0.3-0.5l0.6-5.5c0.1-0.5-0.2-0.9-0.7-0.9-0.4-0.1-0.8 0.3-0.9 0.7l-0.4 3.5c-8.1-9.1-7.8-23 0.9-31.6 7-7 17.7-8.8 26.5-4.4 0.4 0.2 0.9 0.1 1.1-0.3 0.2-0.4 0.1-0.9-0.3-1.1z"/>
				<path id="&lt;Path&gt;" class="s3" d="m493.7 242.2c9.5 4.7 20.9 2.8 28.4-4.7 9.3-9.3 9.6-24.1 1-33.8l3.7 0.4c0.5 0.1 0.9-0.2 0.9-0.7 0.1-0.4-0.2-0.8-0.7-0.9l-5.6-0.7q-0.4 0-0.6 0.2-0.3 0.2-0.3 0.6l-0.7 5.4c0 0.5 0.3 0.9 0.7 0.9 0.5 0.1 0.9-0.2 0.9-0.7l0.5-3.5c8 9.1 7.8 23-0.9 31.7-7 7-17.7 8.7-26.6 4.3-0.4-0.2-0.9 0-1.1 0.4-0.2 0.4 0 0.9 0.4 1.1z"/>
			</g>
			<g id="&lt;Group&gt;">
				<path id="&lt;Path&gt;" class="s3" d="m712.6 288.1h-148.1c-2.7 0-4.9-2.2-4.9-4.9 0-2.7 2.2-4.9 4.9-4.9h148.1c2.7 0 4.9 2.2 4.9 4.9 0 2.7-2.2 4.9-4.9 4.9z"/>
				<path id="&lt;Path&gt;" class="s5" d="m659.7 309.4h-95.2c-2.7 0-4.9-2.2-4.9-4.9 0-2.7 2.2-4.9 4.9-4.9h95.2c2.7 0 4.9 2.2 4.9 4.9 0 2.7-2.2 4.9-4.9 4.9z"/>
				<path id="&lt;Path&gt;" class="s5" d="m659.7 332.2h-95.2c-2.7 0-4.9-2.2-4.9-4.9 0-2.7 2.2-4.9 4.9-4.9h95.2c2.7 0 4.9 2.2 4.9 4.9 0 2.7-2.2 4.9-4.9 4.9z"/>
			</g>
			<g id="&lt;Group&gt;">
				<path id="&lt;Path&gt;" class="s5" d="m187.3 206.9h-76.9c-2.7 0-4.9-2.2-4.9-4.9 0-2.7 2.2-4.9 4.9-4.9h76.9c2.7 0 4.9 2.2 4.9 4.9 0 2.7-2.2 4.9-4.9 4.9z"/>
				<path id="&lt;Path&gt;" class="s3" d="m158.3 228.1h-47.9c-2.7 0-4.9-2.2-4.9-4.9 0-2.7 2.2-4.9 4.9-4.9h47.9c2.7 0 4.9 2.2 4.9 4.9 0 2.7-2.2 4.9-4.9 4.9z"/>
				<path id="&lt;Path&gt;" class="s3" d="m158.3 250.9h-47.9c-2.7 0-4.9-2.1-4.9-4.8 0-2.8 2.2-4.9 4.9-4.9h47.9c2.7 0 4.9 2.1 4.9 4.9 0 2.7-2.2 4.8-4.9 4.8z"/>
			</g>
			<g id="&lt;Group&gt;">
				<path id="&lt;Path&gt;" class="s17" d="m645.9 561.3c-4.8 13.9-10.5 26.1-16.5 37-20.7 37.9-44.8 61.9-45.7 97.2 0 0-7.5-33.2-1.5-71.1 3.4-21.3 11-44 26.5-63.1 43.3-53.2 36.9-101.5 36.9-101.5 0 0 21.6 39.6 0.3 101.5z"/>
				<g id="&lt;Group&gt;" style="opacity: .3;mix-blend-mode: overlay">
					<path id="&lt;Path&gt;" class="s20" d="m594.9 654.1c-0.6-4.4-0.4-8.7 0-13q0.6-6.4 2.3-12.7c2.1-8.3 5.3-16.4 9.2-24 1.9-3.9 4.1-7.6 6.3-11.3l6.9-10.7c4.5-7.2 8.2-14.9 11.3-22.8 3.2-7.9 5.9-16 8.1-24.2q3.4-12.4 5.6-25c1.5-8.4 2.6-16.8 3.1-25.3 0.2-4.3 0.4-8.6 0.2-12.8-0.1-2.2-0.3-4.3-0.6-6.4-0.4-2.1-0.8-4.2-1.7-6.1 1 1.9 1.4 4 1.8 6.1 0.4 2.1 0.5 4.2 0.7 6.4 0.2 4.2 0.2 8.5 0 12.8-0.4 8.5-1.4 17-2.7 25.5q-2.1 12.6-5.4 25c-2.1 8.3-4.7 16.5-7.8 24.5-3.1 8-6.8 15.7-11.2 23.1l-6.9 10.8c-2.2 3.7-4.4 7.3-6.2 11.1-3.8 7.6-6.9 15.5-9 23.7-1.1 4.1-1.8 8.3-2.3 12.5-0.4 4.2-0.6 8.5 0 12.5v0.1c0 0.4-0.3 0.9-0.7 0.9-0.5 0.1-0.9-0.2-1-0.7z"/>
				</g>
				<path id="&lt;Path&gt;" class="s13" d="m629.4 598.3c-20.7 37.9-44.8 61.9-45.7 97.2 0 0-7.5-33.2-1.5-71.1 13.5-5.5 32.3-14.4 47.2-26.1z"/>
				<path id="&lt;Path&gt;" class="s5" d="m595.7 732.9c0 0-15.1-25.9 20.7-57.8 35.8-31.9 63.8-74.1 58.3-108.2-34.2 39.7-125.2 96.1-99.6 165.9z"/>
				<g id="&lt;Group&gt;" style="opacity: .3;mix-blend-mode: overlay">
					<path id="&lt;Path&gt;" class="s20" d="m674.7 566.9c-3.4 7.5-8 14.4-12.9 21.1-5 6.6-10.5 12.8-16.3 18.7-5.8 5.9-12.2 11.2-18.5 16.5-6.3 5.3-12 11.3-17 17.8-10.2 13-18.1 27.8-22.9 43.5-2.4 7.9-4 16-4.2 24.2-0.2 8.1 0.8 16.4 4.1 23.9 0.2 0.4 0 0.9-0.4 1.1-0.4 0.2-0.9 0-1.1-0.4v-0.1c-3.3-7.7-4.3-16.3-4-24.6 0.3-8.3 2-16.5 4.4-24.5 5-15.8 13.1-30.6 23.4-43.6 5.2-6.5 11-12.5 17.3-17.8 6.4-5.2 12.8-10.4 18.6-16.3 5.9-5.8 11.4-12 16.4-18.6 5-6.5 9.6-13.4 13.1-20.9z"/>
				</g>
			</g>
			<g id="&lt;Group&gt;">
				<path id="&lt;Path&gt;" class="s17" d="m82.1 545.6c0 0-18.7-17.1-28.6-59.6 57.2 48.5 71.2 91.6 71.2 91.6z"/>
				<g id="&lt;Group&gt;" style="opacity: .3;mix-blend-mode: overlay">
					<path id="&lt;Path&gt;" class="s20" d="m53.5 486q12 17.1 23.3 34.5 5.7 8.8 11.1 17.7c3.6 5.9 7.1 12 10 18.4 0.2 0.4 0 0.9-0.4 1-0.4 0.2-0.9 0.1-1.1-0.4q0 0 0 0c-2.7-6.3-6.1-12.4-9.5-18.4q-5.3-9-10.8-17.8-11-17.7-22.6-35z"/>
				</g>
				<path id="&lt;Path&gt;" class="s5" d="m123.5 569.5c-10.2-9.3-25.5-18.5-39.9-28.4-19.3-13.1-37.3-27.5-40.6-45.2-7.6 63.7 66.4 92.3 66.4 92.3l0.2 0.2 26.9 39.2c0 0 11-36.5-13-58.1z"/>
				<g id="&lt;Group&gt;" style="opacity: .3;mix-blend-mode: overlay">
					<path id="&lt;Path&gt;" class="s20" d="m43 495.9c0.1 7.1 2.1 14.1 5.1 20.4 3.1 6.4 7.3 12.1 12.4 17.1 5 4.9 10.8 9 16.7 12.8 5.9 3.9 12 7.6 17.8 11.6 11.7 7.9 22.9 17.2 30.7 29.2 7.9 11.9 11.6 26.4 11.6 40.6 0 0.5-0.4 0.8-0.8 0.8-0.5 0-0.8-0.3-0.8-0.8 0.1-14-3.4-28.1-11-39.9-7.6-11.9-18.6-21.2-30.2-29.2-5.8-4-11.7-7.8-17.6-11.7-5.9-3.9-11.7-8.1-16.7-13.1-5-5.1-9.2-10.9-12.3-17.3-2.9-6.4-4.9-13.4-4.9-20.5z"/>
				</g>
			</g>
			<path id="&lt;Path&gt;" class="s1" d="m650.4 761.2h-497.2c-7.8 0-14.2-6.3-14.2-14.2 0-7.8 6.4-14.2 14.2-14.2h497.2c7.9 0 14.2 6.4 14.2 14.2 0 7.9-6.3 14.2-14.2 14.2z"/>
		</g>
	</g>
</svg>